<svg xmlns= "http://www.w3.org/2000/svg" version="1.1" width="1000px" height="1000px">  
<polyline fill="#ffffff" stroke-width="1" points=" 0,0 2027.9999999999632,0 2027.9999999999632,2749.999999999986 0,2749.999999999986 "/><polyline fill="#0080FF" stroke-width="1" points="1203.628,1601.61 1203.62,1601.084 1203.5919,1598.8501 1203.568,1597.088 1203.056,1559.39 1201.92,1554.472 1201.692,1553.3219 1201.396,1551.98 1200.756,1548.962 1196.616,1535.918 1188.1481,1508.78 1181.524,1487.01 1180.004,1482.7161 1179.252,1480.584 1178.8921,1479.5659 1178.436,1478.274 1176.8201,1473.708 1174.568,1472.318 1165.664,1474.722 1138.4081,1385.51 1136.068,1372.574 1143.072,1349.7379 1144.6599,1350.174 1154.996,1316.834 1160.06,1304.282 1158.284,1301.092 1160.468,1294.7219 1161.132,1292.3359 1171.796,1254.6261 1162.588,1250.14 1155.12,1273.724 1152.6481,1274.4559 1147.184,1272.966 1113.376,1244.1641 1111.92,1244.484 1109.3159,1245.0599 1107.636,1246.336 1071.296,1215.74 1033.32,1184.234 1031.704,1184.292 993.38,1213.042 987.16,1222.038 985.048,1226.036 981.21204,1230.262 976.268,1233.814 953.508,1246.142 951.184,1247.942 949.53595,1249.83 947.83594,1252.58 945.224,1259.776 945.24396,1260.854 945.72797,1261.746 939.692,1287.4199 938.14404,1287.644 936.032,1288.514 934.376,1290.2839 930.25604,1300.784 928.504,1308.924 927.872,1315.52 928.668,1328.632 932.076,1341.6301 956.36395,1418.27 956.912,1419.436 958.13605,1420.9939 961.74,1422.5281 980.48004,1430.134 981.832,1431.174 988.432,1434.1161 989.672,1433.956 995.348,1436.26 1008.67596,1446.912 1007.244,1467.9059 1008.8,1467.998 1002.768,1502.2721 1040.14,1509.88 1046.056,1512.368 1049.8,1515.396 1051.336,1518.202 1051.516,1522.198 1056.992,1528.686 1063.5239,1530.9639 1068.008,1536.36 1068.5759,1537.472 1068.76,1538.98 1071.008,1574.5079 1114.7681,1569.424 1140.524,1578.91 1172.284,1614.37 1180.42,1605.98 1195.64,1601.7421 1203.628,1601.61 "/>  
<polyline fill="#0080FF" stroke-width="1" points="539.456,-174.96399 521.22003,-165.866 507.14,-147.56601 504.756,-146.192 501.26797,-141.728 499.616,-137.18 496.132,-136.40799 495.672,-130.656 493.74802,-126.278 497.32397,-121.902 499.98398,-116.838005 505.032,-115.55 509.52798,-112.718 514.01996,-111.688 517.872,-107.023994 525.308,-106.71 515.032,-99.5 496.68,-103.964 496.68,-102.59 529.344,-93.492 529.164,-95.208 519.068,-98.47 528.796,-105.852 541.092,-101.388 545.312,-86.626 547.69604,-77.356 552.652,-58.988003 531.91595,-58.302 513.932,-63.621998 512.832,-60.19 533.016,-53.837997 556.136,-54.01 556.136,-46.628002 551.0,-47.486 549.9,-43.196 555.32,-38.44 548.432,-40.620003 529.712,8.474 533.016,10.706 533.38403,13.11 538.156,15.342 537.604,18.088001 542.008,19.803999 543.292,26.5 540.172,29.245998 548.79596,41.947998 552.468,41.262 556.504,43.666 560.90796,43.666 563.476,47.958 561.46,49.846 560.724,53.622 543.844,62.719997 540.724,62.034 535.216,58.086002 534.484,58.6 552.10004,79.2 553.568,77.654 545.312,67.87 545.312,64.436005 564.58,54.823997 581.828,80.744 615.04,64.608 621.28,74.564 621.096,79.028 591.92004,92.76 604.264,110.484 612.116,121.756 625.128,138.28 650.82,172.24 654.488,170.524 656.508,171.554 658.708,173.61401 658.34406,176.016 655.94,177.892 654.992,179.84999 656.352,180.99399 657.88,182.28 660.444,180.90799 657.38403,184.59201 659.9,186.24199 662.97595,182.206 663.992,181.62001 669.58,181.044 675.404,186.354 675.776,187.69 678.344,186.48799 681.16394,186.88998 683.248,188.47801 684.856,192.228 683.98804,192.87599 682.156,193.948 686.6,199.706 693.936,208.146 695.956,209.662 698.16003,208.63199 701.096,208.118 703.844,209.864 703.664,212.58 701.912,215.93001 708.616,225.454 714.484,229.776 717.792,229.74599 720.176,231.464 721.45996,234.038 719.984,236.94601 720.356,238.702 726.22797,239.73201 730.82,243.48 734.488,246.74 737.24,250.69 740.36005,254.46599 741.276,257.212 740.17596,259.788 745.86,265.65402 770.628,299.128 780.46,298.122 797.68,296.36 814.87604,294.602 832.09595,292.84 849.06396,291.104 866.248,289.268 882.736,287.568 903.824,285.394 913.736,290.686 914.4,296.472 915.02,301.844 907.312,307.33798 809.224,317.398 776.092,320.188 776.636,326.91602 810.0,325.488 810.22797,330.678 814.844,333.974 825.12,333.46002 825.45197,337.03 830.288,336.99402 830.47205,335.106 849.0,333.39 849.552,343.346 825.788,345.872 826.24396,349.882 842.32,348.312 845.132,356.08798 843.3,355.974 842.224,357.284 843.18,363.506 847.852,366.678 849.112,365.292 902.192,399.81998 901.82,402.198 904.808,402.686 927.476,416.958 931.76,421.72598 932.02,422.12 932.348,422.61398 932.384,423.31598 930.55206,426.424 903.24,432.616 899.20404,429.82 897.11597,429.912 891.804,426.46402 888.592,430.93802 890.328,432.006 886.424,437.162 884.256,437.696 878.12805,433.10602 876.932,433.526 873.792,431.288 871.972,433.08002 874.572,435.326 869.50397,440.99 870.45605,444.15 938.04395,429.02 947.05597,441.22598 946.204,443.19598 890.23206,456.732 891.07996,459.968 950.27203,446.172 959.292,463.03998 900.876,485.044 902.27594,488.354 962.02,465.95 970.92395,485.03 910.74805,507.728 912.14,510.756 926.34,505.21198 928.132,509.826 962.736,496.4 960.792,492.27402 971.552,488.30402 984.644,544.388 1001.888,614.082 1007.208,613.566 1014.18005,622.322 1042.98,627.3 1052.516,624.382 1053.068,626.784 1110.116,626.098 1120.132,626.74 1131.576,627.47205 1140.756,628.35 1165.716,631.18195 1185.996,635.054 1194.604,637.066 1209.968,641.26 1218.428,643.56995 1233.6,648.498 1242.092,651.606 1253.116,655.586 1248.2319,668.154 1238.328,677.08203 1235.5759,681.888 1228.636,680.834 1228.636,678.946 1218.34,676.478 1210.7639,674.698 1198.304,671.85 1190.38,670.644 1177.472,668.678 1169.328,667.438 1157.26,666.214 1148.728,665.472 1136.308,665.318 1128.024,665.214 1115.292,665.056 1104.16,664.91797 1102.776,669.356 1084.2479,675.492 1078.932,677.25397 1040.516,674.544 1039.652,674.43994 1038.844,674.33997 1029.984,673.452 1023.068,673.928 1023.532,688.068 1020.6,698.36804 1018.212,698.88196 1017.664,729.094 1010.324,728.064 1009.04004,724.632 1005.55597,724.46 1005.55597,730.468 1031.688,734.966 1067.124,743.712 1079.168,746.696 1088.276,752.24 1077.104,753.75 1023.088,741.52405 1015.672,748.22205 1019.864,792.61 1025.552,791.75195 1030.504,799.476 1022.616,801.536 1024.816,807.372 1035.272,806.686 1040.044,813.552 1041.844,819.83203 1040.1959,820.176 1040.1959,821.72 1025.704,822.75006 1025.704,824.124 1022.4,824.638 1035.0599,851.418 1051.048,879.126 1042.98,882.388 1045.548,887.88196 1080.584,876.036 1082.968,880.844 1086.084,880.5 1093.788,896.98004 1092.688,899.726 1057.468,914.146 1058.9359,916.89197 1122.98,890.94604 1146.344,901.48596 1156.488,906.686 1157.54,908.98 1137.632,917.52606 1136.912,917.794 1136.172,918.07 1135.86,918.194 1135.556,917.732 1085.388,937.97 1087.344,942.128 1088.5079,941.912 1100.056,968.024 1099.0441,968.586 1103.268,977.512 1104.116,977.17395 1205.1279,936.976 1213.748,951.74 1226.772,956.202 1229.156,963.412 1157.3,990.894 1142.872,996.412 1129.876,1001.382 1126.844,1002.542 1144.244,1030.164 1140.952,1031.7681 1143.78,1036.344 1146.252,1035.166 1199.78,1119.884 1167.496,1108.542 1161.812,1102.52 1159.3359,1104.822 1152.908,1098.196 1149.608,1096.5021 1148.536,1097.4 1156.74,1107.636 1155.6641,1108.294 1147.404,1105.694 1140.516,1098.95 1137.26,1101.5079 1136.0,1104.778 1128.532,1101.198 1127.068,1102.846 1135.18,1106.7 1135.46,1107.976 1214.668,1137.8201 1204.58,1164.772 1191.004,1159.45 1188.988,1164.256 1179.084,1161.338 1177.0641,1167.6901 1253.732,1192.924 1256.1161,1188.804 1266.572,1192.58 1265.288,1194.984 1284.5481,1201.85 1312.2401,1141.082 1326.728,1146.06 1350.388,1099.368 1363.408,1097.136 1365.428,1092.5021 1494.716,1132.156 1574.852,1156.704 1577.6,1164.772 1577.6,1180.22 1630.58,1198.876 1670.792,1159.7941 1673.852,1156.818 1682.28,1165.4199 1678.52,1168.766 1674.156,1166.39 1632.568,1205.138 1597.5,1191.286 1577.968,1185.886 1572.836,1191.722 1528.824,1180.564 1481.88,1166.488 1423.196,1148.636 1403.756,1166.3159 1400.272,1167.0021 1393.488,1198.246 1448.32,1197.902 1450.52,1201.336 1456.572,1202.536 1456.572,1204.426 1443.92,1204.426 1444.284,1209.404 1456.572,1208.7161 1456.776,1212.226 1471.996,1217.89 1511.04,1229.76 1546.448,1239.864 1565.52,1246.73 1568.268,1252.224 1600.36,1264.068 1597.976,1272.308 1583.88,1295.8259 1509.588,1273.852 1447.604,1254.798 1430.3679,1272.65 1475.4801,1310.074 1511.0,1339.86 1541.864,1365.004 1536.544,1372.558 1511.9719,1384.0599 1489.968,1366.378 1453.476,1335.994 1408.5441,1299.258 1388.552,1282.9501 1377.552,1276.256 1364.3441,1270.9341 1333.168,1262.18 1323.816,1260.292 1322.348,1264.24 1335.9199,1272.308 1334.084,1275.912 1357.376,1296.5121 1356.276,1298.0559 1422.116,1351.786 1424.8639,1354.7059 1426.8839,1353.8461 1443.7561,1372.902 1454.208,1382.17 1462.52,1390.52 1482.5199,1400.9 1499.688,1411.01 1507.94,1416.674 1505.5559,1420.966 1509.9559,1423.884 1514.172,1420.28 1520.5919,1426.116 1516.556,1429.8921 1548.6481,1464.912 1550.484,1463.538 1558.716,1471.1019 1557.4241,1472.082 1580.268,1495.54 1585.896,1491.1521 1588.8999,1494.728 1583.8081,1498.856 1587.452,1502.6959 1623.22,1475.0759 1623.98,1476.07 1620.8,1479.5599 1630.688,1493.0441 1601.472,1516.3019 1609.0161,1527.646 1619.2479,1540.848 1616.8519,1542.552 1632.492,1562.976 1634.0961,1562.1039 1638.104,1569.682 1642.4801,1575.726 1649.3119,1573.2241 1666.608,1564.2201 1666.972,1563.142 1676.612,1557.114 1676.1599,1555.9579 1698.324,1544.774 1709.172,1561.1 1694.088,1570.6859 1693.28,1569.504 1664.1881,1585.864 1664.896,1587.33 1658.884,1590.6399 1658.276,1589.6 1653.8679,1592.344 1670.264,1617.622 1671.264,1617.622 1683.056,1635.586 1685.0559,1637.52 1693.684,1650.764 1701.756,1649.688 1749.7,1621.446 1759.16,1635.748 1750.004,1641.542 1751.016,1643.8461 1744.448,1646.27 1743.3999,1646.59 1742.7521,1646.788 1703.412,1669.562 1702.9039,1671.298 1751.6039,1744.892 1754.28,1743.522 1756.7959,1747.1079 1785.644,1731.0859 1785.592,1730.282 1793.3201,1725.9779 1794.08,1726.688 1795.484,1725.6559 1793.696,1722.522 1796.38,1720.97 1797.8799,1723.188 1809.872,1716.6119 1812.16,1717.5599 1816.74,1724.74 1817.24,1727.9979 1804.98,1735.304 1806.4,1737.078 1788.172,1747.7921 1772.832,1760.1641 1770.0801,1770.12 1786.88,1791.56 1803.316,1814.8141 1808.2599,1813.438 1831.712,1796.9661 1857.192,1827.1061 1823.9839,1853.718 1823.616,1858.526 1831.316,1863.3319 1845.068,1867.452 1860.832,1881.872 1873.212,1888.1119 1876.2399,1885.992 1879.5121,1887.07 1890.1,1895.33 1900.184,1900.136 1930.984,1918.848 1995.512,1943.052 2025.2401,1953.1199 1999.656,1991.322 1984.6,2026.46 1983.696,2029.238 1981.8041,2028.6859 1974.692,2035.656 1962.24,2031.472 1970.008,2011.784 1974.884,1998.308 1980.016,1988.3519 1942.2521,1973.2461 1907.136,1960.7019 1879.7161,1949.572 1877.4601,1951.724 1861.9559,1945.172 1863.4359,1940.2001 1858.02,1937.4519 1848.74,1933.042 1850.612,1930.164 1832.0,1920.2919 1829.684,1923.292 1822.72,1919.3441 1812.2681,1914.194 1813.736,1910.246 1784.768,1892.736 1776.3319,1891.364 1768.448,1895.9979 1761.48,1898.23 1758.9159,1919.0 1755.98,1937.1959 1755.248,1958.998 1752.316,1984.232 1750.1161,2004.66 1736.7279,1986.292 1738.556,1961.1581 1742.232,1927.928 1732.148,1919.3441 1731.0441,1911.104 1725.3401,1901.692 1723.344,1898.402 1717.66,1898.23 1712.344,1888.446 1711.24,1874.62 1714.728,1871.966 1712.1599,1855.52 1707.212,1844.672 1704.6439,1829.3939 1698.776,1813.2579 1684.64,1787.36 1664.212,1758.734 1647.068,1733.264 1636.64,1718.36 1632.032,1712.32 1627.8159,1705.97 1619.748,1691.2059 1611.864,1679.704 1599.944,1663.054 1588.024,1644.0 1573.1721,1622.714 1574.64,1620.996 1571.02,1611.854 1570.836,1607.562 1543.5121,1566.536 1513.992,1535.122 1493.908,1513.5961 1467.364,1485.926 1456.068,1474.286 1440.608,1458.368 1407.1799,1423.0759 1405.7881,1424.326 1410.396,1429.4121 1406.776,1432.626 1392.556,1436.378 1384.696,1438.18 1378.28,1439.6959 1377.7681,1439.834 1377.2079,1439.984 1376.2001,1440.238 1370.916,1441.664 1364.916,1443.2859 1357.1361,1445.3881 1350.704,1447.0441 1341.1119,1422.7579 1340.908,1422.246 1347.32,1417.768 1356.868,1411.5199 1367.804,1404.572 1380.536,1396.656 1381.036,1396.308 1372.992,1386.922 1365.1321,1379.294 1359.704,1375.252 1353.892,1371.796 1330.968,1358.53 1326.608,1355.9701 1310.692,1346.806 1296.688,1338.4099 1277.724,1327.4359 1197.544,1280.866 1185.292,1299.764 1172.568,1295.896 1172.116,1297.676 1171.868,1298.6439 1171.664,1299.44 1171.428,1300.364 1167.252,1316.742 1150.62,1371.142 1148.916,1371.19 1150.608,1382.102 1152.332,1381.5381 1165.736,1424.258 1167.0,1428.068 1181.128,1472.6339 1182.588,1477.2261 1182.936,1478.312 1183.284,1479.4099 1183.424,1479.838 1184.0,1481.65 1184.064,1481.86 1185.38,1485.9819 1189.184,1498.046 1194.304,1514.27 1200.924,1534.71 1205.988,1550.156 1206.452,1552.402 1206.9039,1554.612 1206.948,1554.838 1207.064,1555.4 1207.084,1555.998 1207.088,1556.1581 1207.16,1558.17 1207.376,1562.548 1207.808,1575.626 1208.0121,1597.02 1208.044,1601.1161 1208.316,1611.4961 1206.856,1611.51 1205.016,1611.528 1204.592,1611.528 1204.276,1611.53 1203.332,1611.538 1202.272,1611.5239 1198.6439,1611.5441 1196.532,1611.898 1187.428,1615.452 1171.088,1622.504 1165.132,1621.24 1157.52,1615.5181 1150.284,1605.082 1142.1641,1593.542 1137.148,1587.3501 1130.22,1582.4459 1121.692,1579.62 1118.14,1579.216 1116.368,1579.984 1115.528,1581.5 1108.112,1582.656 1104.324,1582.512 1096.96,1581.026 1075.612,1583.6941 1071.328,1583.9081 1067.252,1583.418 1064.488,1582.04 1062.448,1580.054 1058.328,1569.364 1056.844,1568.116 1056.2639,1564.44 1056.752,1563.1079 1056.8721,1560.5021 1055.708,1546.2201 1055.224,1543.48 1053.376,1538.666 1050.172,1533.224 1049.136,1531.894 1046.2001,1528.546 1040.952,1523.52 997.112,1511.4459 993.516,1508.692 992.29596,1504.688 992.24,1494.418 996.936,1471.3579 1000.612,1456.984 1001.15204,1454.878 998.068,1448.4761 993.81604,1445.7799 982.74,1441.308 974.892,1437.98 964.164,1433.4861 953.20404,1428.548 951.12396,1426.8721 949.76,1425.09 945.016,1412.91 941.77606,1404.2941 939.99994,1398.472 930.14,1366.6161 921.748,1341.396 919.604,1332.75 918.21606,1327.79 917.296,1322.4541 917.50006,1312.906 919.132,1301.936 922.34406,1289.9519 930.55597,1267.0781 936.38,1251.736 938.91595,1247.328 942.46,1242.874 946.92,1238.944 950.788,1236.404 961.176,1230.876 971.568,1225.13 974.45197,1222.488 976.996,1218.8141 982.692,1210.08 984.04803,1207.7681 986.264,1205.628 985.94,1203.624 1005.96,1188.674 1008.296,1189.416 1015.524,1184.336 1021.084,1180.032 1025.08,1176.692 1025.624,1175.916 1025.36,1175.0181 1021.656,1170.304 1021.388,1170.008 1021.052,1169.62 1018.06,1165.564 1020.656,1163.714 1008.716,1146.476 996.172,1123.866 987.916,1102.0641 983.512,1085.07 977.828,1059.75 989.75195,1057.604 984.61597,1040.782 979.66003,1022.928 969.94,1024.474 962.416,988.76794 958.304,961.302 953.428,930.23206 947.56,882.338 943.52405,846.63196 929.764,846.97595 925.17596,779.856 922.44794,725.54 921.536,678.654 913.648,681.31604 913.748,678.83606 908.068,679.01 907.792,675.902 915.484,675.47406 913.732,663.90796 912.276,656.452 912.824,651.61804 905.648,629.018 903.472,627.224 901.44,627.166 884.744,583.114 879.604,584.834 895.564,629.126 882.25604,633.244 873.824,615.304 871.44,616.334 879.416,633.75195 866.93195,640.44604 857.21204,624.27 841.08,568.292 833.89996,542.572 833.104,541.73 832.472,541.06 832.49194,540.188 832.86395,539.622 832.924,538.81396 833.07996,537.558 833.28406,536.22 833.516,534.866 834.612,533.022 838.83203,530.63 830.088,516.102 825.148,518.28204 824.33203,517.544 823.412,517.308 822.56396,517.10596 821.592,517.10596 820.50397,517.206 819.828,517.17 819.204,516.898 815.48,512.228 816.164,511.57602 802.94,494.638 782.372,468.21402 770.284,452.962 758.964,438.66797 749.012,426.068 756.84,420.59 745.356,405.19598 737.252,410.518 726.64,396.94598 719.66,388.256 706.94794,371.70398 705.904,370.29 700.712,373.598 700.356,375.802 695.956,377.758 688.572,380.81003 687.856,380.644 686.58,381.002 684.36804,381.696 682.388,382.154 680.852,382.404 679.48804,382.718 677.096,383.20798 675.416,383.574 674.11993,383.53 673.216,383.94 671.828,384.08398 670.54803,384.28 669.64,384.488 668.392,384.918 667.276,384.996 666.15204,385.46 664.22797,385.862 662.916,386.26398 661.852,386.292 660.848,386.50598 659.548,386.59402 658.29596,386.942 657.25604,387.13 655.708,387.658 654.172,388.272 650.98395,389.11 648.32,390.97998 644.856,392.838 641.524,394.256 626.148,380.37 626.23206,379.62 625.412,378.83798 624.37604,377.81998 620.89996,374.556 619.68,373.366 619.032,373.242 618.164,372.684 617.42,372.016 616.576,370.678 614.644,368.90802 613.508,367.622 613.11597,366.81802 612.86,364.156 612.876,362.8 612.904,361.86798 613.016,361.152 610.048,357.34198 609.80396,356.99402 609.464,356.58603 606.716,353.046 606.276,352.15198 605.328,351.43597 604.42804,350.99 603.96,350.46802 602.99603,349.75 602.188,349.008 601.24,347.69598 600.13995,345.32 599.61597,343.96 598.916,342.982 598.0,341.79602 597.39197,341.216 596.536,339.70602 595.752,338.286 594.972,337.122 594.196,335.966 593.228,334.13998 592.388,332.426 591.644,330.254 591.072,328.49597 590.368,327.04 589.72003,325.814 589.98,324.198 585.844,323.50998 585.796,322.776 578.056,321.498 577.236,317.64 577.652,313.652 577.708,312.154 578.344,311.448 578.7,311.036 579.124,310.54 581.196,308.3 581.8,308.438 584.284,304.66202 584.432,304.434 568.428,294.896 567.232,295.138 566.388,295.354 562.94403,293.496 564.908,292.724 564.316,291.30002 562.756,292.118 560.676,290.488 556.956,294.932 547.792,277.238 546.588,274.062 545.2,269.896 546.412,268.69998 537.04004,247.82 535.048,243.53801 534.11597,243.124 533.432,243.036 531.964,243.594 529.8,239.828 528.06,236.056 524.66003,233.31801 517.324,229.71399 503.592,213.87599 504.304,207.02998 505.76797,201.072 502.52402,184.458 494.56,169.58 492.38397,155.14801 485.152,142.052 484.476,142.282 480.224,134.532 473.29602,122.724 473.664,121.348 470.02402,114.358 456.37997,105.758 454.348,103.986 454.83203,100.362 457.30798,99.054 455.048,97.796005 451.66,92.562 453.06,91.404 451.984,90.397995 449.776,91.052 444.54,85.843994 438.66797,79.116005 432.88397,75.992004 430.51202,73.904 428.284,71.226 426.08002,70.272 416.92398,70.53 411.74,71.252 407.436,72.416 402.376,70.756 395.85602,67.672 390.88,64.897995 387.91602,62.302002 385.79602,57.811996 383.184,52.892002 381.84,50.149998 381.276,48.022 382.312,47.427998 383.044,47.038002 383.5,46.694 383.848,46.156002 384.072,45.306 383.92398,44.212 383.4,43.262 410.852,8.176 409.356,7.088 381.328,42.066 377.272,37.85 375.004,33.422 374.076,29.82 386.80402,17.75 385.316,16.246 372.636,28.088 368.76398,23.442 368.832,19.612 366.53198,13.802 387.292,-1.082 385.404,-2.976 365.54797,11.792 361.41202,0.37 362.772,-0.208 353.796,-21.034 350.376,-19.948 350.596,-19.184 337.044,-14.96 334.41202,-16.104 318.176,-56.754 307.48,-86.73399 306.184,-93.633995 306.428,-98.996 310.592,-99.698 312.36002,-99.44199 315.472,-125.026 319.236,-155.2 325.43997,-157.242 326.46,-155.924 329.72,-157.132 329.676,-159.096 361.85202,-170.108 363.5,-170.67 360.55597,-175.32 355.1,-179.404 "/>  
<polyline fill="#0080FF" stroke-width="1" points="1203.628,1601.61 1203.62,1601.084 1203.5919,1598.8501 1203.568,1597.088 1203.056,1559.39 1201.92,1554.472 1201.692,1553.3219 1201.396,1551.98 1200.756,1548.962 1196.616,1535.918 1188.1481,1508.78 1181.524,1487.01 1180.004,1482.7161 1179.252,1480.584 1178.8921,1479.5659 1178.436,1478.274 1176.8201,1473.708 1174.568,1472.318 1165.664,1474.722 1138.4081,1385.51 1136.068,1372.574 1143.072,1349.7379 1144.6599,1350.174 1154.996,1316.834 1160.06,1304.282 1158.284,1301.092 1160.468,1294.7219 1161.132,1292.3359 1171.796,1254.6261 1162.588,1250.14 1155.12,1273.724 1152.6481,1274.4559 1147.184,1272.966 1113.376,1244.1641 1111.92,1244.484 1109.3159,1245.0599 1107.636,1246.336 1071.296,1215.74 1033.32,1184.234 1031.704,1184.292 993.38,1213.042 987.16,1222.038 985.048,1226.036 981.21204,1230.262 976.268,1233.814 953.508,1246.142 951.184,1247.942 949.53595,1249.83 947.83594,1252.58 945.224,1259.776 945.24396,1260.854 945.72797,1261.746 939.692,1287.4199 938.14404,1287.644 936.032,1288.514 934.376,1290.2839 930.25604,1300.784 928.504,1308.924 927.872,1315.52 928.668,1328.632 932.076,1341.6301 956.36395,1418.27 956.912,1419.436 958.13605,1420.9939 961.74,1422.5281 980.48004,1430.134 981.832,1431.174 988.432,1434.1161 989.672,1433.956 995.348,1436.26 1008.67596,1446.912 1007.244,1467.9059 1008.8,1467.998 1002.768,1502.2721 1040.14,1509.88 1046.056,1512.368 1049.8,1515.396 1051.336,1518.202 1051.516,1522.198 1056.992,1528.686 1063.5239,1530.9639 1068.008,1536.36 1068.5759,1537.472 1068.76,1538.98 1071.008,1574.5079 1114.7681,1569.424 1140.524,1578.91 1172.284,1614.37 1180.42,1605.98 1195.64,1601.7421 1203.628,1601.61 "/>  
<polyline fill="#0080FF" stroke-width="1" points="539.456,-174.96399 521.22003,-165.866 507.14,-147.56601 504.756,-146.192 501.26797,-141.728 499.616,-137.18 496.132,-136.40799 495.672,-130.656 493.74802,-126.278 497.32397,-121.902 499.98398,-116.838005 505.032,-115.55 509.52798,-112.718 514.01996,-111.688 517.872,-107.023994 525.308,-106.71 515.032,-99.5 496.68,-103.964 496.68,-102.59 529.344,-93.492 529.164,-95.208 519.068,-98.47 528.796,-105.852 541.092,-101.388 545.312,-86.626 547.69604,-77.356 552.652,-58.988003 531.91595,-58.302 513.932,-63.621998 512.832,-60.19 533.016,-53.837997 556.136,-54.01 556.136,-46.628002 551.0,-47.486 549.9,-43.196 555.32,-38.44 548.432,-40.620003 529.712,8.474 533.016,10.706 533.38403,13.11 538.156,15.342 537.604,18.088001 542.008,19.803999 543.292,26.5 540.172,29.245998 548.79596,41.947998 552.468,41.262 556.504,43.666 560.90796,43.666 563.476,47.958 561.46,49.846 560.724,53.622 543.844,62.719997 540.724,62.034 535.216,58.086002 534.484,58.6 552.10004,79.2 553.568,77.654 545.312,67.87 545.312,64.436005 564.58,54.823997 581.828,80.744 615.04,64.608 621.28,74.564 621.096,79.028 591.92004,92.76 604.264,110.484 612.116,121.756 625.128,138.28 650.82,172.24 654.488,170.524 656.508,171.554 658.708,173.61401 658.34406,176.016 655.94,177.892 654.992,179.84999 656.352,180.99399 657.88,182.28 660.444,180.90799 657.38403,184.59201 659.9,186.24199 662.97595,182.206 663.992,181.62001 669.58,181.044 675.404,186.354 675.776,187.69 678.344,186.48799 681.16394,186.88998 683.248,188.47801 684.856,192.228 683.98804,192.87599 682.156,193.948 686.6,199.706 693.936,208.146 695.956,209.662 698.16003,208.63199 701.096,208.118 703.844,209.864 703.664,212.58 701.912,215.93001 708.616,225.454 714.484,229.776 717.792,229.74599 720.176,231.464 721.45996,234.038 719.984,236.94601 720.356,238.702 726.22797,239.73201 730.82,243.48 734.488,246.74 737.24,250.69 740.36005,254.46599 741.276,257.212 740.17596,259.788 745.86,265.65402 770.628,299.128 780.46,298.122 797.68,296.36 814.87604,294.602 832.09595,292.84 849.06396,291.104 866.248,289.268 882.736,287.568 903.824,285.394 913.736,290.686 914.4,296.472 915.02,301.844 907.312,307.33798 809.224,317.398 776.092,320.188 776.636,326.91602 810.0,325.488 810.22797,330.678 814.844,333.974 825.12,333.46002 825.45197,337.03 830.288,336.99402 830.47205,335.106 849.0,333.39 849.552,343.346 825.788,345.872 826.24396,349.882 842.32,348.312 845.132,356.08798 843.3,355.974 842.224,357.284 843.18,363.506 847.852,366.678 849.112,365.292 902.192,399.81998 901.82,402.198 904.808,402.686 927.476,416.958 931.76,421.72598 932.02,422.12 932.348,422.61398 932.384,423.31598 930.55206,426.424 903.24,432.616 899.20404,429.82 897.11597,429.912 891.804,426.46402 888.592,430.93802 890.328,432.006 886.424,437.162 884.256,437.696 878.12805,433.10602 876.932,433.526 873.792,431.288 871.972,433.08002 874.572,435.326 869.50397,440.99 870.45605,444.15 938.04395,429.02 947.05597,441.22598 946.204,443.19598 890.23206,456.732 891.07996,459.968 950.27203,446.172 959.292,463.03998 900.876,485.044 902.27594,488.354 962.02,465.95 970.92395,485.03 910.74805,507.728 912.14,510.756 926.34,505.21198 928.132,509.826 962.736,496.4 960.792,492.27402 971.552,488.30402 984.644,544.388 1001.888,614.082 1007.208,613.566 1014.18005,622.322 1042.98,627.3 1052.516,624.382 1053.068,626.784 1110.116,626.098 1120.132,626.74 1131.576,627.47205 1140.756,628.35 1165.716,631.18195 1185.996,635.054 1194.604,637.066 1209.968,641.26 1218.428,643.56995 1233.6,648.498 1242.092,651.606 1253.116,655.586 1248.2319,668.154 1238.328,677.08203 1235.5759,681.888 1228.636,680.834 1228.636,678.946 1218.34,676.478 1210.7639,674.698 1198.304,671.85 1190.38,670.644 1177.472,668.678 1169.328,667.438 1157.26,666.214 1148.728,665.472 1136.308,665.318 1128.024,665.214 1115.292,665.056 1104.16,664.91797 1102.776,669.356 1084.2479,675.492 1078.932,677.25397 1040.516,674.544 1039.652,674.43994 1038.844,674.33997 1029.984,673.452 1023.068,673.928 1023.532,688.068 1020.6,698.36804 1018.212,698.88196 1017.664,729.094 1010.324,728.064 1009.04004,724.632 1005.55597,724.46 1005.55597,730.468 1031.688,734.966 1067.124,743.712 1079.168,746.696 1088.276,752.24 1077.104,753.75 1023.088,741.52405 1015.672,748.22205 1019.864,792.61 1025.552,791.75195 1030.504,799.476 1022.616,801.536 1024.816,807.372 1035.272,806.686 1040.044,813.552 1041.844,819.83203 1040.1959,820.176 1040.1959,821.72 1025.704,822.75006 1025.704,824.124 1022.4,824.638 1035.0599,851.418 1051.048,879.126 1042.98,882.388 1045.548,887.88196 1080.584,876.036 1082.968,880.844 1086.084,880.5 1093.788,896.98004 1092.688,899.726 1057.468,914.146 1058.9359,916.89197 1122.98,890.94604 1146.344,901.48596 1156.488,906.686 1157.54,908.98 1137.632,917.52606 1136.912,917.794 1136.172,918.07 1135.86,918.194 1135.556,917.732 1085.388,937.97 1087.344,942.128 1088.5079,941.912 1100.056,968.024 1099.0441,968.586 1103.268,977.512 1104.116,977.17395 1205.1279,936.976 1213.748,951.74 1226.772,956.202 1229.156,963.412 1157.3,990.894 1142.872,996.412 1129.876,1001.382 1126.844,1002.542 1144.244,1030.164 1140.952,1031.7681 1143.78,1036.344 1146.252,1035.166 1199.78,1119.884 1167.496,1108.542 1161.812,1102.52 1159.3359,1104.822 1152.908,1098.196 1149.608,1096.5021 1148.536,1097.4 1156.74,1107.636 1155.6641,1108.294 1147.404,1105.694 1140.516,1098.95 1137.26,1101.5079 1136.0,1104.778 1128.532,1101.198 1127.068,1102.846 1135.18,1106.7 1135.46,1107.976 1214.668,1137.8201 1204.58,1164.772 1191.004,1159.45 1188.988,1164.256 1179.084,1161.338 1177.0641,1167.6901 1253.732,1192.924 1256.1161,1188.804 1266.572,1192.58 1265.288,1194.984 1284.5481,1201.85 1312.2401,1141.082 1326.728,1146.06 1350.388,1099.368 1363.408,1097.136 1365.428,1092.5021 1494.716,1132.156 1574.852,1156.704 1577.6,1164.772 1577.6,1180.22 1630.58,1198.876 1670.792,1159.7941 1673.852,1156.818 1682.28,1165.4199 1678.52,1168.766 1674.156,1166.39 1632.568,1205.138 1597.5,1191.286 1577.968,1185.886 1572.836,1191.722 1528.824,1180.564 1481.88,1166.488 1423.196,1148.636 1403.756,1166.3159 1400.272,1167.0021 1393.488,1198.246 1448.32,1197.902 1450.52,1201.336 1456.572,1202.536 1456.572,1204.426 1443.92,1204.426 1444.284,1209.404 1456.572,1208.7161 1456.776,1212.226 1471.996,1217.89 1511.04,1229.76 1546.448,1239.864 1565.52,1246.73 1568.268,1252.224 1600.36,1264.068 1597.976,1272.308 1583.88,1295.8259 1509.588,1273.852 1447.604,1254.798 1430.3679,1272.65 1475.4801,1310.074 1511.0,1339.86 1541.864,1365.004 1536.544,1372.558 1511.9719,1384.0599 1489.968,1366.378 1453.476,1335.994 1408.5441,1299.258 1388.552,1282.9501 1377.552,1276.256 1364.3441,1270.9341 1333.168,1262.18 1323.816,1260.292 1322.348,1264.24 1335.9199,1272.308 1334.084,1275.912 1357.376,1296.5121 1356.276,1298.0559 1422.116,1351.786 1424.8639,1354.7059 1426.8839,1353.8461 1443.7561,1372.902 1454.208,1382.17 1462.52,1390.52 1482.5199,1400.9 1499.688,1411.01 1507.94,1416.674 1505.5559,1420.966 1509.9559,1423.884 1514.172,1420.28 1520.5919,1426.116 1516.556,1429.8921 1548.6481,1464.912 1550.484,1463.538 1558.716,1471.1019 1557.4241,1472.082 1580.268,1495.54 1585.896,1491.1521 1588.8999,1494.728 1583.8081,1498.856 1587.452,1502.6959 1623.22,1475.0759 1623.98,1476.07 1620.8,1479.5599 1630.688,1493.0441 1601.472,1516.3019 1609.0161,1527.646 1619.2479,1540.848 1616.8519,1542.552 1632.492,1562.976 1634.0961,1562.1039 1638.104,1569.682 1642.4801,1575.726 1649.3119,1573.2241 1666.608,1564.2201 1666.972,1563.142 1676.612,1557.114 1676.1599,1555.9579 1698.324,1544.774 1709.172,1561.1 1694.088,1570.6859 1693.28,1569.504 1664.1881,1585.864 1664.896,1587.33 1658.884,1590.6399 1658.276,1589.6 1653.8679,1592.344 1670.264,1617.622 1671.264,1617.622 1683.056,1635.586 1685.0559,1637.52 1693.684,1650.764 1701.756,1649.688 1749.7,1621.446 1759.16,1635.748 1750.004,1641.542 1751.016,1643.8461 1744.448,1646.27 1743.3999,1646.59 1742.7521,1646.788 1703.412,1669.562 1702.9039,1671.298 1751.6039,1744.892 1754.28,1743.522 1756.7959,1747.1079 1785.644,1731.0859 1785.592,1730.282 1793.3201,1725.9779 1794.08,1726.688 1795.484,1725.6559 1793.696,1722.522 1796.38,1720.97 1797.8799,1723.188 1809.872,1716.6119 1812.16,1717.5599 1816.74,1724.74 1817.24,1727.9979 1804.98,1735.304 1806.4,1737.078 1788.172,1747.7921 1772.832,1760.1641 1770.0801,1770.12 1786.88,1791.56 1803.316,1814.8141 1808.2599,1813.438 1831.712,1796.9661 1857.192,1827.1061 1823.9839,1853.718 1823.616,1858.526 1831.316,1863.3319 1845.068,1867.452 1860.832,1881.872 1873.212,1888.1119 1876.2399,1885.992 1879.5121,1887.07 1890.1,1895.33 1900.184,1900.136 1930.984,1918.848 1995.512,1943.052 2025.2401,1953.1199 1999.656,1991.322 1984.6,2026.46 1983.696,2029.238 1981.8041,2028.6859 1974.692,2035.656 1962.24,2031.472 1970.008,2011.784 1974.884,1998.308 1980.016,1988.3519 1942.2521,1973.2461 1907.136,1960.7019 1879.7161,1949.572 1877.4601,1951.724 1861.9559,1945.172 1863.4359,1940.2001 1858.02,1937.4519 1848.74,1933.042 1850.612,1930.164 1832.0,1920.2919 1829.684,1923.292 1822.72,1919.3441 1812.2681,1914.194 1813.736,1910.246 1784.768,1892.736 1776.3319,1891.364 1768.448,1895.9979 1761.48,1898.23 1758.9159,1919.0 1755.98,1937.1959 1755.248,1958.998 1752.316,1984.232 1750.1161,2004.66 1736.7279,1986.292 1738.556,1961.1581 1742.232,1927.928 1732.148,1919.3441 1731.0441,1911.104 1725.3401,1901.692 1723.344,1898.402 1717.66,1898.23 1712.344,1888.446 1711.24,1874.62 1714.728,1871.966 1712.1599,1855.52 1707.212,1844.672 1704.6439,1829.3939 1698.776,1813.2579 1684.64,1787.36 1664.212,1758.734 1647.068,1733.264 1636.64,1718.36 1632.032,1712.32 1627.8159,1705.97 1619.748,1691.2059 1611.864,1679.704 1599.944,1663.054 1588.024,1644.0 1573.1721,1622.714 1574.64,1620.996 1571.02,1611.854 1570.836,1607.562 1543.5121,1566.536 1513.992,1535.122 1493.908,1513.5961 1467.364,1485.926 1456.068,1474.286 1440.608,1458.368 1407.1799,1423.0759 1405.7881,1424.326 1410.396,1429.4121 1406.776,1432.626 1392.556,1436.378 1384.696,1438.18 1378.28,1439.6959 1377.7681,1439.834 1377.2079,1439.984 1376.2001,1440.238 1370.916,1441.664 1364.916,1443.2859 1357.1361,1445.3881 1350.704,1447.0441 1341.1119,1422.7579 1340.908,1422.246 1347.32,1417.768 1356.868,1411.5199 1367.804,1404.572 1380.536,1396.656 1381.036,1396.308 1372.992,1386.922 1365.1321,1379.294 1359.704,1375.252 1353.892,1371.796 1330.968,1358.53 1326.608,1355.9701 1310.692,1346.806 1296.688,1338.4099 1277.724,1327.4359 1197.544,1280.866 1185.292,1299.764 1172.568,1295.896 1172.116,1297.676 1171.868,1298.6439 1171.664,1299.44 1171.428,1300.364 1167.252,1316.742 1150.62,1371.142 1148.916,1371.19 1150.608,1382.102 1152.332,1381.5381 1165.736,1424.258 1167.0,1428.068 1181.128,1472.6339 1182.588,1477.2261 1182.936,1478.312 1183.284,1479.4099 1183.424,1479.838 1184.0,1481.65 1184.064,1481.86 1185.38,1485.9819 1189.184,1498.046 1194.304,1514.27 1200.924,1534.71 1205.988,1550.156 1206.452,1552.402 1206.9039,1554.612 1206.948,1554.838 1207.064,1555.4 1207.084,1555.998 1207.088,1556.1581 1207.16,1558.17 1207.376,1562.548 1207.808,1575.626 1208.0121,1597.02 1208.044,1601.1161 1208.316,1611.4961 1206.856,1611.51 1205.016,1611.528 1204.592,1611.528 1204.276,1611.53 1203.332,1611.538 1202.272,1611.5239 1198.6439,1611.5441 1196.532,1611.898 1187.428,1615.452 1171.088,1622.504 1165.132,1621.24 1157.52,1615.5181 1150.284,1605.082 1142.1641,1593.542 1137.148,1587.3501 1130.22,1582.4459 1121.692,1579.62 1118.14,1579.216 1116.368,1579.984 1115.528,1581.5 1108.112,1582.656 1104.324,1582.512 1096.96,1581.026 1075.612,1583.6941 1071.328,1583.9081 1067.252,1583.418 1064.488,1582.04 1062.448,1580.054 1058.328,1569.364 1056.844,1568.116 1056.2639,1564.44 1056.752,1563.1079 1056.8721,1560.5021 1055.708,1546.2201 1055.224,1543.48 1053.376,1538.666 1050.172,1533.224 1049.136,1531.894 1046.2001,1528.546 1040.952,1523.52 997.112,1511.4459 993.516,1508.692 992.29596,1504.688 992.24,1494.418 996.936,1471.3579 1000.612,1456.984 1001.15204,1454.878 998.068,1448.4761 993.81604,1445.7799 982.74,1441.308 974.892,1437.98 964.164,1433.4861 953.20404,1428.548 951.12396,1426.8721 949.76,1425.09 945.016,1412.91 941.77606,1404.2941 939.99994,1398.472 930.14,1366.6161 921.748,1341.396 919.604,1332.75 918.21606,1327.79 917.296,1322.4541 917.50006,1312.906 919.132,1301.936 922.34406,1289.9519 930.55597,1267.0781 936.38,1251.736 938.91595,1247.328 942.46,1242.874 946.92,1238.944 950.788,1236.404 961.176,1230.876 971.568,1225.13 974.45197,1222.488 976.996,1218.8141 982.692,1210.08 984.04803,1207.7681 986.264,1205.628 985.94,1203.624 1005.96,1188.674 1008.296,1189.416 1015.524,1184.336 1021.084,1180.032 1025.08,1176.692 1025.624,1175.916 1025.36,1175.0181 1021.656,1170.304 1021.388,1170.008 1021.052,1169.62 1018.06,1165.564 1020.656,1163.714 1008.716,1146.476 996.172,1123.866 987.916,1102.0641 983.512,1085.07 977.828,1059.75 989.75195,1057.604 984.61597,1040.782 979.66003,1022.928 969.94,1024.474 962.416,988.76794 958.304,961.302 953.428,930.23206 947.56,882.338 943.52405,846.63196 929.764,846.97595 925.17596,779.856 922.44794,725.54 921.536,678.654 913.648,681.31604 913.748,678.83606 908.068,679.01 907.792,675.902 915.484,675.47406 913.732,663.90796 912.276,656.452 912.824,651.61804 905.648,629.018 903.472,627.224 901.44,627.166 884.744,583.114 879.604,584.834 895.564,629.126 882.25604,633.244 873.824,615.304 871.44,616.334 879.416,633.75195 866.93195,640.44604 857.21204,624.27 841.08,568.292 833.89996,542.572 833.104,541.73 832.472,541.06 832.49194,540.188 832.86395,539.622 832.924,538.81396 833.07996,537.558 833.28406,536.22 833.516,534.866 834.612,533.022 838.83203,530.63 830.088,516.102 825.148,518.28204 824.33203,517.544 823.412,517.308 822.56396,517.10596 821.592,517.10596 820.50397,517.206 819.828,517.17 819.204,516.898 815.48,512.228 816.164,511.57602 802.94,494.638 782.372,468.21402 770.284,452.962 758.964,438.66797 749.012,426.068 756.84,420.59 745.356,405.19598 737.252,410.518 726.64,396.94598 719.66,388.256 706.94794,371.70398 705.904,370.29 700.712,373.598 700.356,375.802 695.956,377.758 688.572,380.81003 687.856,380.644 686.58,381.002 684.36804,381.696 682.388,382.154 680.852,382.404 679.48804,382.718 677.096,383.20798 675.416,383.574 674.11993,383.53 673.216,383.94 671.828,384.08398 670.54803,384.28 669.64,384.488 668.392,384.918 667.276,384.996 666.15204,385.46 664.22797,385.862 662.916,386.26398 661.852,386.292 660.848,386.50598 659.548,386.59402 658.29596,386.942 657.25604,387.13 655.708,387.658 654.172,388.272 650.98395,389.11 648.32,390.97998 644.856,392.838 641.524,394.256 626.148,380.37 626.23206,379.62 625.412,378.83798 624.37604,377.81998 620.89996,374.556 619.68,373.366 619.032,373.242 618.164,372.684 617.42,372.016 616.576,370.678 614.644,368.90802 613.508,367.622 613.11597,366.81802 612.86,364.156 612.876,362.8 612.904,361.86798 613.016,361.152 610.048,357.34198 609.80396,356.99402 609.464,356.58603 606.716,353.046 606.276,352.15198 605.328,351.43597 604.42804,350.99 603.96,350.46802 602.99603,349.75 602.188,349.008 601.24,347.69598 600.13995,345.32 599.61597,343.96 598.916,342.982 598.0,341.79602 597.39197,341.216 596.536,339.70602 595.752,338.286 594.972,337.122 594.196,335.966 593.228,334.13998 592.388,332.426 591.644,330.254 591.072,328.49597 590.368,327.04 589.72003,325.814 589.98,324.198 585.844,323.50998 585.796,322.776 578.056,321.498 577.236,317.64 577.652,313.652 577.708,312.154 578.344,311.448 578.7,311.036 579.124,310.54 581.196,308.3 581.8,308.438 584.284,304.66202 584.432,304.434 568.428,294.896 567.232,295.138 566.388,295.354 562.94403,293.496 564.908,292.724 564.316,291.30002 562.756,292.118 560.676,290.488 556.956,294.932 547.792,277.238 546.588,274.062 545.2,269.896 546.412,268.69998 537.04004,247.82 535.048,243.53801 534.11597,243.124 533.432,243.036 531.964,243.594 529.8,239.828 528.06,236.056 524.66003,233.31801 517.324,229.71399 503.592,213.87599 504.304,207.02998 505.76797,201.072 502.52402,184.458 494.56,169.58 492.38397,155.14801 485.152,142.052 484.476,142.282 480.224,134.532 473.29602,122.724 473.664,121.348 470.02402,114.358 456.37997,105.758 454.348,103.986 454.83203,100.362 457.30798,99.054 455.048,97.796005 451.66,92.562 453.06,91.404 451.984,90.397995 449.776,91.052 444.54,85.843994 438.66797,79.116005 432.88397,75.992004 430.51202,73.904 428.284,71.226 426.08002,70.272 416.92398,70.53 411.74,71.252 407.436,72.416 402.376,70.756 395.85602,67.672 390.88,64.897995 387.91602,62.302002 385.79602,57.811996 383.184,52.892002 381.84,50.149998 381.276,48.022 382.312,47.427998 383.044,47.038002 383.5,46.694 383.848,46.156002 384.072,45.306 383.92398,44.212 383.4,43.262 410.852,8.176 409.356,7.088 381.328,42.066 377.272,37.85 375.004,33.422 374.076,29.82 386.80402,17.75 385.316,16.246 372.636,28.088 368.76398,23.442 368.832,19.612 366.53198,13.802 387.292,-1.082 385.404,-2.976 365.54797,11.792 361.41202,0.37 362.772,-0.208 353.796,-21.034 350.376,-19.948 350.596,-19.184 337.044,-14.96 334.41202,-16.104 318.176,-56.754 307.48,-86.73399 306.184,-93.633995 306.428,-98.996 310.592,-99.698 312.36002,-99.44199 315.472,-125.026 319.236,-155.2 325.43997,-157.242 326.46,-155.924 329.72,-157.132 329.676,-159.096 361.85202,-170.108 363.5,-170.67 360.55597,-175.32 355.1,-179.404 "/>  
<polyline fill="#0080FF" stroke-width="1" points="1203.628,1601.61 1203.62,1601.084 1203.5919,1598.8501 1203.568,1597.088 1203.056,1559.39 1201.92,1554.472 1201.692,1553.3219 1201.396,1551.98 1200.756,1548.962 1196.616,1535.918 1188.1481,1508.78 1181.524,1487.01 1180.004,1482.7161 1179.252,1480.584 1178.8921,1479.5659 1178.436,1478.274 1176.8201,1473.708 1174.568,1472.318 1165.664,1474.722 1138.4081,1385.51 1136.068,1372.574 1143.072,1349.7379 1144.6599,1350.174 1154.996,1316.834 1160.06,1304.282 1158.284,1301.092 1160.468,1294.7219 1161.132,1292.3359 1171.796,1254.6261 1162.588,1250.14 1155.12,1273.724 1152.6481,1274.4559 1147.184,1272.966 1113.376,1244.1641 1111.92,1244.484 1109.3159,1245.0599 1107.636,1246.336 1071.296,1215.74 1033.32,1184.234 1031.704,1184.292 993.38,1213.042 987.16,1222.038 985.048,1226.036 981.21204,1230.262 976.268,1233.814 953.508,1246.142 951.184,1247.942 949.53595,1249.83 947.83594,1252.58 945.224,1259.776 945.24396,1260.854 945.72797,1261.746 939.692,1287.4199 938.14404,1287.644 936.032,1288.514 934.376,1290.2839 930.25604,1300.784 928.504,1308.924 927.872,1315.52 928.668,1328.632 932.076,1341.6301 956.36395,1418.27 956.912,1419.436 958.13605,1420.9939 961.74,1422.5281 980.48004,1430.134 981.832,1431.174 988.432,1434.1161 989.672,1433.956 995.348,1436.26 1008.67596,1446.912 1007.244,1467.9059 1008.8,1467.998 1002.768,1502.2721 1040.14,1509.88 1046.056,1512.368 1049.8,1515.396 1051.336,1518.202 1051.516,1522.198 1056.992,1528.686 1063.5239,1530.9639 1068.008,1536.36 1068.5759,1537.472 1068.76,1538.98 1071.008,1574.5079 1114.7681,1569.424 1140.524,1578.91 1172.284,1614.37 1180.42,1605.98 1195.64,1601.7421 1203.628,1601.61 "/>  
<polyline fill="#0080FF" stroke-width="1" points="539.456,-174.96399 521.22003,-165.866 507.14,-147.56601 504.756,-146.192 501.26797,-141.728 499.616,-137.18 496.132,-136.40799 495.672,-130.656 493.74802,-126.278 497.32397,-121.902 499.98398,-116.838005 505.032,-115.55 509.52798,-112.718 514.01996,-111.688 517.872,-107.023994 525.308,-106.71 515.032,-99.5 496.68,-103.964 496.68,-102.59 529.344,-93.492 529.164,-95.208 519.068,-98.47 528.796,-105.852 541.092,-101.388 545.312,-86.626 547.69604,-77.356 552.652,-58.988003 531.91595,-58.302 513.932,-63.621998 512.832,-60.19 533.016,-53.837997 556.136,-54.01 556.136,-46.628002 551.0,-47.486 549.9,-43.196 555.32,-38.44 548.432,-40.620003 529.712,8.474 533.016,10.706 533.38403,13.11 538.156,15.342 537.604,18.088001 542.008,19.803999 543.292,26.5 540.172,29.245998 548.79596,41.947998 552.468,41.262 556.504,43.666 560.90796,43.666 563.476,47.958 561.46,49.846 560.724,53.622 543.844,62.719997 540.724,62.034 535.216,58.086002 534.484,58.6 552.10004,79.2 553.568,77.654 545.312,67.87 545.312,64.436005 564.58,54.823997 581.828,80.744 615.04,64.608 621.28,74.564 621.096,79.028 591.92004,92.76 604.264,110.484 612.116,121.756 625.128,138.28 650.82,172.24 654.488,170.524 656.508,171.554 658.708,173.61401 658.34406,176.016 655.94,177.892 654.992,179.84999 656.352,180.99399 657.88,182.28 660.444,180.90799 657.38403,184.59201 659.9,186.24199 662.97595,182.206 663.992,181.62001 669.58,181.044 675.404,186.354 675.776,187.69 678.344,186.48799 681.16394,186.88998 683.248,188.47801 684.856,192.228 683.98804,192.87599 682.156,193.948 686.6,199.706 693.936,208.146 695.956,209.662 698.16003,208.63199 701.096,208.118 703.844,209.864 703.664,212.58 701.912,215.93001 708.616,225.454 714.484,229.776 717.792,229.74599 720.176,231.464 721.45996,234.038 719.984,236.94601 720.356,238.702 726.22797,239.73201 730.82,243.48 734.488,246.74 737.24,250.69 740.36005,254.46599 741.276,257.212 740.17596,259.788 745.86,265.65402 770.628,299.128 780.46,298.122 797.68,296.36 814.87604,294.602 832.09595,292.84 849.06396,291.104 866.248,289.268 882.736,287.568 903.824,285.394 913.736,290.686 914.4,296.472 915.02,301.844 907.312,307.33798 809.224,317.398 776.092,320.188 776.636,326.91602 810.0,325.488 810.22797,330.678 814.844,333.974 825.12,333.46002 825.45197,337.03 830.288,336.99402 830.47205,335.106 849.0,333.39 849.552,343.346 825.788,345.872 826.24396,349.882 842.32,348.312 845.132,356.08798 843.3,355.974 842.224,357.284 843.18,363.506 847.852,366.678 849.112,365.292 902.192,399.81998 901.82,402.198 904.808,402.686 927.476,416.958 931.76,421.72598 932.02,422.12 932.348,422.61398 932.384,423.31598 930.55206,426.424 903.24,432.616 899.20404,429.82 897.11597,429.912 891.804,426.46402 888.592,430.93802 890.328,432.006 886.424,437.162 884.256,437.696 878.12805,433.10602 876.932,433.526 873.792,431.288 871.972,433.08002 874.572,435.326 869.50397,440.99 870.45605,444.15 938.04395,429.02 947.05597,441.22598 946.204,443.19598 890.23206,456.732 891.07996,459.968 950.27203,446.172 959.292,463.03998 900.876,485.044 902.27594,488.354 962.02,465.95 970.92395,485.03 910.74805,507.728 912.14,510.756 926.34,505.21198 928.132,509.826 962.736,496.4 960.792,492.27402 971.552,488.30402 984.644,544.388 1001.888,614.082 1007.208,613.566 1014.18005,622.322 1042.98,627.3 1052.516,624.382 1053.068,626.784 1110.116,626.098 1120.132,626.74 1131.576,627.47205 1140.756,628.35 1165.716,631.18195 1185.996,635.054 1194.604,637.066 1209.968,641.26 1218.428,643.56995 1233.6,648.498 1242.092,651.606 1253.116,655.586 1248.2319,668.154 1238.328,677.08203 1235.5759,681.888 1228.636,680.834 1228.636,678.946 1218.34,676.478 1210.7639,674.698 1198.304,671.85 1190.38,670.644 1177.472,668.678 1169.328,667.438 1157.26,666.214 1148.728,665.472 1136.308,665.318 1128.024,665.214 1115.292,665.056 1104.16,664.91797 1102.776,669.356 1084.2479,675.492 1078.932,677.25397 1040.516,674.544 1039.652,674.43994 1038.844,674.33997 1029.984,673.452 1023.068,673.928 1023.532,688.068 1020.6,698.36804 1018.212,698.88196 1017.664,729.094 1010.324,728.064 1009.04004,724.632 1005.55597,724.46 1005.55597,730.468 1031.688,734.966 1067.124,743.712 1079.168,746.696 1088.276,752.24 1077.104,753.75 1023.088,741.52405 1015.672,748.22205 1019.864,792.61 1025.552,791.75195 1030.504,799.476 1022.616,801.536 1024.816,807.372 1035.272,806.686 1040.044,813.552 1041.844,819.83203 1040.1959,820.176 1040.1959,821.72 1025.704,822.75006 1025.704,824.124 1022.4,824.638 1035.0599,851.418 1051.048,879.126 1042.98,882.388 1045.548,887.88196 1080.584,876.036 1082.968,880.844 1086.084,880.5 1093.788,896.98004 1092.688,899.726 1057.468,914.146 1058.9359,916.89197 1122.98,890.94604 1146.344,901.48596 1156.488,906.686 1157.54,908.98 1137.632,917.52606 1136.912,917.794 1136.172,918.07 1135.86,918.194 1135.556,917.732 1085.388,937.97 1087.344,942.128 1088.5079,941.912 1100.056,968.024 1099.0441,968.586 1103.268,977.512 1104.116,977.17395 1205.1279,936.976 1213.748,951.74 1226.772,956.202 1229.156,963.412 1157.3,990.894 1142.872,996.412 1129.876,1001.382 1126.844,1002.542 1144.244,1030.164 1140.952,1031.7681 1143.78,1036.344 1146.252,1035.166 1199.78,1119.884 1167.496,1108.542 1161.812,1102.52 1159.3359,1104.822 1152.908,1098.196 1149.608,1096.5021 1148.536,1097.4 1156.74,1107.636 1155.6641,1108.294 1147.404,1105.694 1140.516,1098.95 1137.26,1101.5079 1136.0,1104.778 1128.532,1101.198 1127.068,1102.846 1135.18,1106.7 1135.46,1107.976 1214.668,1137.8201 1204.58,1164.772 1191.004,1159.45 1188.988,1164.256 1179.084,1161.338 1177.0641,1167.6901 1253.732,1192.924 1256.1161,1188.804 1266.572,1192.58 1265.288,1194.984 1284.5481,1201.85 1312.2401,1141.082 1326.728,1146.06 1350.388,1099.368 1363.408,1097.136 1365.428,1092.5021 1494.716,1132.156 1574.852,1156.704 1577.6,1164.772 1577.6,1180.22 1630.58,1198.876 1670.792,1159.7941 1673.852,1156.818 1682.28,1165.4199 1678.52,1168.766 1674.156,1166.39 1632.568,1205.138 1597.5,1191.286 1577.968,1185.886 1572.836,1191.722 1528.824,1180.564 1481.88,1166.488 1423.196,1148.636 1403.756,1166.3159 1400.272,1167.0021 1393.488,1198.246 1448.32,1197.902 1450.52,1201.336 1456.572,1202.536 1456.572,1204.426 1443.92,1204.426 1444.284,1209.404 1456.572,1208.7161 1456.776,1212.226 1471.996,1217.89 1511.04,1229.76 1546.448,1239.864 1565.52,1246.73 1568.268,1252.224 1600.36,1264.068 1597.976,1272.308 1583.88,1295.8259 1509.588,1273.852 1447.604,1254.798 1430.3679,1272.65 1475.4801,1310.074 1511.0,1339.86 1541.864,1365.004 1536.544,1372.558 1511.9719,1384.0599 1489.968,1366.378 1453.476,1335.994 1408.5441,1299.258 1388.552,1282.9501 1377.552,1276.256 1364.3441,1270.9341 1333.168,1262.18 1323.816,1260.292 1322.348,1264.24 1335.9199,1272.308 1334.084,1275.912 1357.376,1296.5121 1356.276,1298.0559 1422.116,1351.786 1424.8639,1354.7059 1426.8839,1353.8461 1443.7561,1372.902 1454.208,1382.17 1462.52,1390.52 1482.5199,1400.9 1499.688,1411.01 1507.94,1416.674 1505.5559,1420.966 1509.9559,1423.884 1514.172,1420.28 1520.5919,1426.116 1516.556,1429.8921 1548.6481,1464.912 1550.484,1463.538 1558.716,1471.1019 1557.4241,1472.082 1580.268,1495.54 1585.896,1491.1521 1588.8999,1494.728 1583.8081,1498.856 1587.452,1502.6959 1623.22,1475.0759 1623.98,1476.07 1620.8,1479.5599 1630.688,1493.0441 1601.472,1516.3019 1609.0161,1527.646 1619.2479,1540.848 1616.8519,1542.552 1632.492,1562.976 1634.0961,1562.1039 1638.104,1569.682 1642.4801,1575.726 1649.3119,1573.2241 1666.608,1564.2201 1666.972,1563.142 1676.612,1557.114 1676.1599,1555.9579 1698.324,1544.774 1709.172,1561.1 1694.088,1570.6859 1693.28,1569.504 1664.1881,1585.864 1664.896,1587.33 1658.884,1590.6399 1658.276,1589.6 1653.8679,1592.344 1670.264,1617.622 1671.264,1617.622 1683.056,1635.586 1685.0559,1637.52 1693.684,1650.764 1701.756,1649.688 1749.7,1621.446 1759.16,1635.748 1750.004,1641.542 1751.016,1643.8461 1744.448,1646.27 1743.3999,1646.59 1742.7521,1646.788 1703.412,1669.562 1702.9039,1671.298 1751.6039,1744.892 1754.28,1743.522 1756.7959,1747.1079 1785.644,1731.0859 1785.592,1730.282 1793.3201,1725.9779 1794.08,1726.688 1795.484,1725.6559 1793.696,1722.522 1796.38,1720.97 1797.8799,1723.188 1809.872,1716.6119 1812.16,1717.5599 1816.74,1724.74 1817.24,1727.9979 1804.98,1735.304 1806.4,1737.078 1788.172,1747.7921 1772.832,1760.1641 1770.0801,1770.12 1786.88,1791.56 1803.316,1814.8141 1808.2599,1813.438 1831.712,1796.9661 1857.192,1827.1061 1823.9839,1853.718 1823.616,1858.526 1831.316,1863.3319 1845.068,1867.452 1860.832,1881.872 1873.212,1888.1119 1876.2399,1885.992 1879.5121,1887.07 1890.1,1895.33 1900.184,1900.136 1930.984,1918.848 1995.512,1943.052 2025.2401,1953.1199 1999.656,1991.322 1984.6,2026.46 1983.696,2029.238 1981.8041,2028.6859 1974.692,2035.656 1962.24,2031.472 1970.008,2011.784 1974.884,1998.308 1980.016,1988.3519 1942.2521,1973.2461 1907.136,1960.7019 1879.7161,1949.572 1877.4601,1951.724 1861.9559,1945.172 1863.4359,1940.2001 1858.02,1937.4519 1848.74,1933.042 1850.612,1930.164 1832.0,1920.2919 1829.684,1923.292 1822.72,1919.3441 1812.2681,1914.194 1813.736,1910.246 1784.768,1892.736 1776.3319,1891.364 1768.448,1895.9979 1761.48,1898.23 1758.9159,1919.0 1755.98,1937.1959 1755.248,1958.998 1752.316,1984.232 1750.1161,2004.66 1736.7279,1986.292 1738.556,1961.1581 1742.232,1927.928 1732.148,1919.3441 1731.0441,1911.104 1725.3401,1901.692 1723.344,1898.402 1717.66,1898.23 1712.344,1888.446 1711.24,1874.62 1714.728,1871.966 1712.1599,1855.52 1707.212,1844.672 1704.6439,1829.3939 1698.776,1813.2579 1684.64,1787.36 1664.212,1758.734 1647.068,1733.264 1636.64,1718.36 1632.032,1712.32 1627.8159,1705.97 1619.748,1691.2059 1611.864,1679.704 1599.944,1663.054 1588.024,1644.0 1573.1721,1622.714 1574.64,1620.996 1571.02,1611.854 1570.836,1607.562 1543.5121,1566.536 1513.992,1535.122 1493.908,1513.5961 1467.364,1485.926 1456.068,1474.286 1440.608,1458.368 1407.1799,1423.0759 1405.7881,1424.326 1410.396,1429.4121 1406.776,1432.626 1392.556,1436.378 1384.696,1438.18 1378.28,1439.6959 1377.7681,1439.834 1377.2079,1439.984 1376.2001,1440.238 1370.916,1441.664 1364.916,1443.2859 1357.1361,1445.3881 1350.704,1447.0441 1341.1119,1422.7579 1340.908,1422.246 1347.32,1417.768 1356.868,1411.5199 1367.804,1404.572 1380.536,1396.656 1381.036,1396.308 1372.992,1386.922 1365.1321,1379.294 1359.704,1375.252 1353.892,1371.796 1330.968,1358.53 1326.608,1355.9701 1310.692,1346.806 1296.688,1338.4099 1277.724,1327.4359 1197.544,1280.866 1185.292,1299.764 1172.568,1295.896 1172.116,1297.676 1171.868,1298.6439 1171.664,1299.44 1171.428,1300.364 1167.252,1316.742 1150.62,1371.142 1148.916,1371.19 1150.608,1382.102 1152.332,1381.5381 1165.736,1424.258 1167.0,1428.068 1181.128,1472.6339 1182.588,1477.2261 1182.936,1478.312 1183.284,1479.4099 1183.424,1479.838 1184.0,1481.65 1184.064,1481.86 1185.38,1485.9819 1189.184,1498.046 1194.304,1514.27 1200.924,1534.71 1205.988,1550.156 1206.452,1552.402 1206.9039,1554.612 1206.948,1554.838 1207.064,1555.4 1207.084,1555.998 1207.088,1556.1581 1207.16,1558.17 1207.376,1562.548 1207.808,1575.626 1208.0121,1597.02 1208.044,1601.1161 1208.316,1611.4961 1206.856,1611.51 1205.016,1611.528 1204.592,1611.528 1204.276,1611.53 1203.332,1611.538 1202.272,1611.5239 1198.6439,1611.5441 1196.532,1611.898 1187.428,1615.452 1171.088,1622.504 1165.132,1621.24 1157.52,1615.5181 1150.284,1605.082 1142.1641,1593.542 1137.148,1587.3501 1130.22,1582.4459 1121.692,1579.62 1118.14,1579.216 1116.368,1579.984 1115.528,1581.5 1108.112,1582.656 1104.324,1582.512 1096.96,1581.026 1075.612,1583.6941 1071.328,1583.9081 1067.252,1583.418 1064.488,1582.04 1062.448,1580.054 1058.328,1569.364 1056.844,1568.116 1056.2639,1564.44 1056.752,1563.1079 1056.8721,1560.5021 1055.708,1546.2201 1055.224,1543.48 1053.376,1538.666 1050.172,1533.224 1049.136,1531.894 1046.2001,1528.546 1040.952,1523.52 997.112,1511.4459 993.516,1508.692 992.29596,1504.688 992.24,1494.418 996.936,1471.3579 1000.612,1456.984 1001.15204,1454.878 998.068,1448.4761 993.81604,1445.7799 982.74,1441.308 974.892,1437.98 964.164,1433.4861 953.20404,1428.548 951.12396,1426.8721 949.76,1425.09 945.016,1412.91 941.77606,1404.2941 939.99994,1398.472 930.14,1366.6161 921.748,1341.396 919.604,1332.75 918.21606,1327.79 917.296,1322.4541 917.50006,1312.906 919.132,1301.936 922.34406,1289.9519 930.55597,1267.0781 936.38,1251.736 938.91595,1247.328 942.46,1242.874 946.92,1238.944 950.788,1236.404 961.176,1230.876 971.568,1225.13 974.45197,1222.488 976.996,1218.8141 982.692,1210.08 984.04803,1207.7681 986.264,1205.628 985.94,1203.624 1005.96,1188.674 1008.296,1189.416 1015.524,1184.336 1021.084,1180.032 1025.08,1176.692 1025.624,1175.916 1025.36,1175.0181 1021.656,1170.304 1021.388,1170.008 1021.052,1169.62 1018.06,1165.564 1020.656,1163.714 1008.716,1146.476 996.172,1123.866 987.916,1102.0641 983.512,1085.07 977.828,1059.75 989.75195,1057.604 984.61597,1040.782 979.66003,1022.928 969.94,1024.474 962.416,988.76794 958.304,961.302 953.428,930.23206 947.56,882.338 943.52405,846.63196 929.764,846.97595 925.17596,779.856 922.44794,725.54 921.536,678.654 913.648,681.31604 913.748,678.83606 908.068,679.01 907.792,675.902 915.484,675.47406 913.732,663.90796 912.276,656.452 912.824,651.61804 905.648,629.018 903.472,627.224 901.44,627.166 884.744,583.114 879.604,584.834 895.564,629.126 882.25604,633.244 873.824,615.304 871.44,616.334 879.416,633.75195 866.93195,640.44604 857.21204,624.27 841.08,568.292 833.89996,542.572 833.104,541.73 832.472,541.06 832.49194,540.188 832.86395,539.622 832.924,538.81396 833.07996,537.558 833.28406,536.22 833.516,534.866 834.612,533.022 838.83203,530.63 830.088,516.102 825.148,518.28204 824.33203,517.544 823.412,517.308 822.56396,517.10596 821.592,517.10596 820.50397,517.206 819.828,517.17 819.204,516.898 815.48,512.228 816.164,511.57602 802.94,494.638 782.372,468.21402 770.284,452.962 758.964,438.66797 749.012,426.068 756.84,420.59 745.356,405.19598 737.252,410.518 726.64,396.94598 719.66,388.256 706.94794,371.70398 705.904,370.29 700.712,373.598 700.356,375.802 695.956,377.758 688.572,380.81003 687.856,380.644 686.58,381.002 684.36804,381.696 682.388,382.154 680.852,382.404 679.48804,382.718 677.096,383.20798 675.416,383.574 674.11993,383.53 673.216,383.94 671.828,384.08398 670.54803,384.28 669.64,384.488 668.392,384.918 667.276,384.996 666.15204,385.46 664.22797,385.862 662.916,386.26398 661.852,386.292 660.848,386.50598 659.548,386.59402 658.29596,386.942 657.25604,387.13 655.708,387.658 654.172,388.272 650.98395,389.11 648.32,390.97998 644.856,392.838 641.524,394.256 626.148,380.37 626.23206,379.62 625.412,378.83798 624.37604,377.81998 620.89996,374.556 619.68,373.366 619.032,373.242 618.164,372.684 617.42,372.016 616.576,370.678 614.644,368.90802 613.508,367.622 613.11597,366.81802 612.86,364.156 612.876,362.8 612.904,361.86798 613.016,361.152 610.048,357.34198 609.80396,356.99402 609.464,356.58603 606.716,353.046 606.276,352.15198 605.328,351.43597 604.42804,350.99 603.96,350.46802 602.99603,349.75 602.188,349.008 601.24,347.69598 600.13995,345.32 599.61597,343.96 598.916,342.982 598.0,341.79602 597.39197,341.216 596.536,339.70602 595.752,338.286 594.972,337.122 594.196,335.966 593.228,334.13998 592.388,332.426 591.644,330.254 591.072,328.49597 590.368,327.04 589.72003,325.814 589.98,324.198 585.844,323.50998 585.796,322.776 578.056,321.498 577.236,317.64 577.652,313.652 577.708,312.154 578.344,311.448 578.7,311.036 579.124,310.54 581.196,308.3 581.8,308.438 584.284,304.66202 584.432,304.434 568.428,294.896 567.232,295.138 566.388,295.354 562.94403,293.496 564.908,292.724 564.316,291.30002 562.756,292.118 560.676,290.488 556.956,294.932 547.792,277.238 546.588,274.062 545.2,269.896 546.412,268.69998 537.04004,247.82 535.048,243.53801 534.11597,243.124 533.432,243.036 531.964,243.594 529.8,239.828 528.06,236.056 524.66003,233.31801 517.324,229.71399 503.592,213.87599 504.304,207.02998 505.76797,201.072 502.52402,184.458 494.56,169.58 492.38397,155.14801 485.152,142.052 484.476,142.282 480.224,134.532 473.29602,122.724 473.664,121.348 470.02402,114.358 456.37997,105.758 454.348,103.986 454.83203,100.362 457.30798,99.054 455.048,97.796005 451.66,92.562 453.06,91.404 451.984,90.397995 449.776,91.052 444.54,85.843994 438.66797,79.116005 432.88397,75.992004 430.51202,73.904 428.284,71.226 426.08002,70.272 416.92398,70.53 411.74,71.252 407.436,72.416 402.376,70.756 395.85602,67.672 390.88,64.897995 387.91602,62.302002 385.79602,57.811996 383.184,52.892002 381.84,50.149998 381.276,48.022 382.312,47.427998 383.044,47.038002 383.5,46.694 383.848,46.156002 384.072,45.306 383.92398,44.212 383.4,43.262 410.852,8.176 409.356,7.088 381.328,42.066 377.272,37.85 375.004,33.422 374.076,29.82 386.80402,17.75 385.316,16.246 372.636,28.088 368.76398,23.442 368.832,19.612 366.53198,13.802 387.292,-1.082 385.404,-2.976 365.54797,11.792 361.41202,0.37 362.772,-0.208 353.796,-21.034 350.376,-19.948 350.596,-19.184 337.044,-14.96 334.41202,-16.104 318.176,-56.754 307.48,-86.73399 306.184,-93.633995 306.428,-98.996 310.592,-99.698 312.36002,-99.44199 315.472,-125.026 319.236,-155.2 325.43997,-157.242 326.46,-155.924 329.72,-157.132 329.676,-159.096 361.85202,-170.108 363.5,-170.67 360.55597,-175.32 355.1,-179.404 "/>  
<polyline fill="#0080FF" stroke-width="1" points="1203.628,1601.61 1203.62,1601.084 1203.5919,1598.8501 1203.568,1597.088 1203.056,1559.39 1201.92,1554.472 1201.692,1553.3219 1201.396,1551.98 1200.756,1548.962 1196.616,1535.918 1188.1481,1508.78 1181.524,1487.01 1180.004,1482.7161 1179.252,1480.584 1178.8921,1479.5659 1178.436,1478.274 1176.8201,1473.708 1174.568,1472.318 1165.664,1474.722 1138.4081,1385.51 1136.068,1372.574 1143.072,1349.7379 1144.6599,1350.174 1154.996,1316.834 1160.06,1304.282 1158.284,1301.092 1160.468,1294.7219 1161.132,1292.3359 1171.796,1254.6261 1162.588,1250.14 1155.12,1273.724 1152.6481,1274.4559 1147.184,1272.966 1113.376,1244.1641 1111.92,1244.484 1109.3159,1245.0599 1107.636,1246.336 1071.296,1215.74 1033.32,1184.234 1031.704,1184.292 993.38,1213.042 987.16,1222.038 985.048,1226.036 981.21204,1230.262 976.268,1233.814 953.508,1246.142 951.184,1247.942 949.53595,1249.83 947.83594,1252.58 945.224,1259.776 945.24396,1260.854 945.72797,1261.746 939.692,1287.4199 938.14404,1287.644 936.032,1288.514 934.376,1290.2839 930.25604,1300.784 928.504,1308.924 927.872,1315.52 928.668,1328.632 932.076,1341.6301 956.36395,1418.27 956.912,1419.436 958.13605,1420.9939 961.74,1422.5281 980.48004,1430.134 981.832,1431.174 988.432,1434.1161 989.672,1433.956 995.348,1436.26 1008.67596,1446.912 1007.244,1467.9059 1008.8,1467.998 1002.768,1502.2721 1040.14,1509.88 1046.056,1512.368 1049.8,1515.396 1051.336,1518.202 1051.516,1522.198 1056.992,1528.686 1063.5239,1530.9639 1068.008,1536.36 1068.5759,1537.472 1068.76,1538.98 1071.008,1574.5079 1114.7681,1569.424 1140.524,1578.91 1172.284,1614.37 1180.42,1605.98 1195.64,1601.7421 1203.628,1601.61 "/>  
<polyline fill="#0080FF" stroke-width="1" points="539.456,-174.96399 521.22003,-165.866 507.14,-147.56601 504.756,-146.192 501.26797,-141.728 499.616,-137.18 496.132,-136.40799 495.672,-130.656 493.74802,-126.278 497.32397,-121.902 499.98398,-116.838005 505.032,-115.55 509.52798,-112.718 514.01996,-111.688 517.872,-107.023994 525.308,-106.71 515.032,-99.5 496.68,-103.964 496.68,-102.59 529.344,-93.492 529.164,-95.208 519.068,-98.47 528.796,-105.852 541.092,-101.388 545.312,-86.626 547.69604,-77.356 552.652,-58.988003 531.91595,-58.302 513.932,-63.621998 512.832,-60.19 533.016,-53.837997 556.136,-54.01 556.136,-46.628002 551.0,-47.486 549.9,-43.196 555.32,-38.44 548.432,-40.620003 529.712,8.474 533.016,10.706 533.38403,13.11 538.156,15.342 537.604,18.088001 542.008,19.803999 543.292,26.5 540.172,29.245998 548.79596,41.947998 552.468,41.262 556.504,43.666 560.90796,43.666 563.476,47.958 561.46,49.846 560.724,53.622 543.844,62.719997 540.724,62.034 535.216,58.086002 534.484,58.6 552.10004,79.2 553.568,77.654 545.312,67.87 545.312,64.436005 564.58,54.823997 581.828,80.744 615.04,64.608 621.28,74.564 621.096,79.028 591.92004,92.76 604.264,110.484 612.116,121.756 625.128,138.28 650.82,172.24 654.488,170.524 656.508,171.554 658.708,173.61401 658.34406,176.016 655.94,177.892 654.992,179.84999 656.352,180.99399 657.88,182.28 660.444,180.90799 657.38403,184.59201 659.9,186.24199 662.97595,182.206 663.992,181.62001 669.58,181.044 675.404,186.354 675.776,187.69 678.344,186.48799 681.16394,186.88998 683.248,188.47801 684.856,192.228 683.98804,192.87599 682.156,193.948 686.6,199.706 693.936,208.146 695.956,209.662 698.16003,208.63199 701.096,208.118 703.844,209.864 703.664,212.58 701.912,215.93001 708.616,225.454 714.484,229.776 717.792,229.74599 720.176,231.464 721.45996,234.038 719.984,236.94601 720.356,238.702 726.22797,239.73201 730.82,243.48 734.488,246.74 737.24,250.69 740.36005,254.46599 741.276,257.212 740.17596,259.788 745.86,265.65402 770.628,299.128 780.46,298.122 797.68,296.36 814.87604,294.602 832.09595,292.84 849.06396,291.104 866.248,289.268 882.736,287.568 903.824,285.394 913.736,290.686 914.4,296.472 915.02,301.844 907.312,307.33798 809.224,317.398 776.092,320.188 776.636,326.91602 810.0,325.488 810.22797,330.678 814.844,333.974 825.12,333.46002 825.45197,337.03 830.288,336.99402 830.47205,335.106 849.0,333.39 849.552,343.346 825.788,345.872 826.24396,349.882 842.32,348.312 845.132,356.08798 843.3,355.974 842.224,357.284 843.18,363.506 847.852,366.678 849.112,365.292 902.192,399.81998 901.82,402.198 904.808,402.686 927.476,416.958 931.76,421.72598 932.02,422.12 932.348,422.61398 932.384,423.31598 930.55206,426.424 903.24,432.616 899.20404,429.82 897.11597,429.912 891.804,426.46402 888.592,430.93802 890.328,432.006 886.424,437.162 884.256,437.696 878.12805,433.10602 876.932,433.526 873.792,431.288 871.972,433.08002 874.572,435.326 869.50397,440.99 870.45605,444.15 938.04395,429.02 947.05597,441.22598 946.204,443.19598 890.23206,456.732 891.07996,459.968 950.27203,446.172 959.292,463.03998 900.876,485.044 902.27594,488.354 962.02,465.95 970.92395,485.03 910.74805,507.728 912.14,510.756 926.34,505.21198 928.132,509.826 962.736,496.4 960.792,492.27402 971.552,488.30402 984.644,544.388 1001.888,614.082 1007.208,613.566 1014.18005,622.322 1042.98,627.3 1052.516,624.382 1053.068,626.784 1110.116,626.098 1120.132,626.74 1131.576,627.47205 1140.756,628.35 1165.716,631.18195 1185.996,635.054 1194.604,637.066 1209.968,641.26 1218.428,643.56995 1233.6,648.498 1242.092,651.606 1253.116,655.586 1248.2319,668.154 1238.328,677.08203 1235.5759,681.888 1228.636,680.834 1228.636,678.946 1218.34,676.478 1210.7639,674.698 1198.304,671.85 1190.38,670.644 1177.472,668.678 1169.328,667.438 1157.26,666.214 1148.728,665.472 1136.308,665.318 1128.024,665.214 1115.292,665.056 1104.16,664.91797 1102.776,669.356 1084.2479,675.492 1078.932,677.25397 1040.516,674.544 1039.652,674.43994 1038.844,674.33997 1029.984,673.452 1023.068,673.928 1023.532,688.068 1020.6,698.36804 1018.212,698.88196 1017.664,729.094 1010.324,728.064 1009.04004,724.632 1005.55597,724.46 1005.55597,730.468 1031.688,734.966 1067.124,743.712 1079.168,746.696 1088.276,752.24 1077.104,753.75 1023.088,741.52405 1015.672,748.22205 1019.864,792.61 1025.552,791.75195 1030.504,799.476 1022.616,801.536 1024.816,807.372 1035.272,806.686 1040.044,813.552 1041.844,819.83203 1040.1959,820.176 1040.1959,821.72 1025.704,822.75006 1025.704,824.124 1022.4,824.638 1035.0599,851.418 1051.048,879.126 1042.98,882.388 1045.548,887.88196 1080.584,876.036 1082.968,880.844 1086.084,880.5 1093.788,896.98004 1092.688,899.726 1057.468,914.146 1058.9359,916.89197 1122.98,890.94604 1146.344,901.48596 1156.488,906.686 1157.54,908.98 1137.632,917.52606 1136.912,917.794 1136.172,918.07 1135.86,918.194 1135.556,917.732 1085.388,937.97 1087.344,942.128 1088.5079,941.912 1100.056,968.024 1099.0441,968.586 1103.268,977.512 1104.116,977.17395 1205.1279,936.976 1213.748,951.74 1226.772,956.202 1229.156,963.412 1157.3,990.894 1142.872,996.412 1129.876,1001.382 1126.844,1002.542 1144.244,1030.164 1140.952,1031.7681 1143.78,1036.344 1146.252,1035.166 1199.78,1119.884 1167.496,1108.542 1161.812,1102.52 1159.3359,1104.822 1152.908,1098.196 1149.608,1096.5021 1148.536,1097.4 1156.74,1107.636 1155.6641,1108.294 1147.404,1105.694 1140.516,1098.95 1137.26,1101.5079 1136.0,1104.778 1128.532,1101.198 1127.068,1102.846 1135.18,1106.7 1135.46,1107.976 1214.668,1137.8201 1204.58,1164.772 1191.004,1159.45 1188.988,1164.256 1179.084,1161.338 1177.0641,1167.6901 1253.732,1192.924 1256.1161,1188.804 1266.572,1192.58 1265.288,1194.984 1284.5481,1201.85 1312.2401,1141.082 1326.728,1146.06 1350.388,1099.368 1363.408,1097.136 1365.428,1092.5021 1494.716,1132.156 1574.852,1156.704 1577.6,1164.772 1577.6,1180.22 1630.58,1198.876 1670.792,1159.7941 1673.852,1156.818 1682.28,1165.4199 1678.52,1168.766 1674.156,1166.39 1632.568,1205.138 1597.5,1191.286 1577.968,1185.886 1572.836,1191.722 1528.824,1180.564 1481.88,1166.488 1423.196,1148.636 1403.756,1166.3159 1400.272,1167.0021 1393.488,1198.246 1448.32,1197.902 1450.52,1201.336 1456.572,1202.536 1456.572,1204.426 1443.92,1204.426 1444.284,1209.404 1456.572,1208.7161 1456.776,1212.226 1471.996,1217.89 1511.04,1229.76 1546.448,1239.864 1565.52,1246.73 1568.268,1252.224 1600.36,1264.068 1597.976,1272.308 1583.88,1295.8259 1509.588,1273.852 1447.604,1254.798 1430.3679,1272.65 1475.4801,1310.074 1511.0,1339.86 1541.864,1365.004 1536.544,1372.558 1511.9719,1384.0599 1489.968,1366.378 1453.476,1335.994 1408.5441,1299.258 1388.552,1282.9501 1377.552,1276.256 1364.3441,1270.9341 1333.168,1262.18 1323.816,1260.292 1322.348,1264.24 1335.9199,1272.308 1334.084,1275.912 1357.376,1296.5121 1356.276,1298.0559 1422.116,1351.786 1424.8639,1354.7059 1426.8839,1353.8461 1443.7561,1372.902 1454.208,1382.17 1462.52,1390.52 1482.5199,1400.9 1499.688,1411.01 1507.94,1416.674 1505.5559,1420.966 1509.9559,1423.884 1514.172,1420.28 1520.5919,1426.116 1516.556,1429.8921 1548.6481,1464.912 1550.484,1463.538 1558.716,1471.1019 1557.4241,1472.082 1580.268,1495.54 1585.896,1491.1521 1588.8999,1494.728 1583.8081,1498.856 1587.452,1502.6959 1623.22,1475.0759 1623.98,1476.07 1620.8,1479.5599 1630.688,1493.0441 1601.472,1516.3019 1609.0161,1527.646 1619.2479,1540.848 1616.8519,1542.552 1632.492,1562.976 1634.0961,1562.1039 1638.104,1569.682 1642.4801,1575.726 1649.3119,1573.2241 1666.608,1564.2201 1666.972,1563.142 1676.612,1557.114 1676.1599,1555.9579 1698.324,1544.774 1709.172,1561.1 1694.088,1570.6859 1693.28,1569.504 1664.1881,1585.864 1664.896,1587.33 1658.884,1590.6399 1658.276,1589.6 1653.8679,1592.344 1670.264,1617.622 1671.264,1617.622 1683.056,1635.586 1685.0559,1637.52 1693.684,1650.764 1701.756,1649.688 1749.7,1621.446 1759.16,1635.748 1750.004,1641.542 1751.016,1643.8461 1744.448,1646.27 1743.3999,1646.59 1742.7521,1646.788 1703.412,1669.562 1702.9039,1671.298 1751.6039,1744.892 1754.28,1743.522 1756.7959,1747.1079 1785.644,1731.0859 1785.592,1730.282 1793.3201,1725.9779 1794.08,1726.688 1795.484,1725.6559 1793.696,1722.522 1796.38,1720.97 1797.8799,1723.188 1809.872,1716.6119 1812.16,1717.5599 1816.74,1724.74 1817.24,1727.9979 1804.98,1735.304 1806.4,1737.078 1788.172,1747.7921 1772.832,1760.1641 1770.0801,1770.12 1786.88,1791.56 1803.316,1814.8141 1808.2599,1813.438 1831.712,1796.9661 1857.192,1827.1061 1823.9839,1853.718 1823.616,1858.526 1831.316,1863.3319 1845.068,1867.452 1860.832,1881.872 1873.212,1888.1119 1876.2399,1885.992 1879.5121,1887.07 1890.1,1895.33 1900.184,1900.136 1930.984,1918.848 1995.512,1943.052 2025.2401,1953.1199 1999.656,1991.322 1984.6,2026.46 1983.696,2029.238 1981.8041,2028.6859 1974.692,2035.656 1962.24,2031.472 1970.008,2011.784 1974.884,1998.308 1980.016,1988.3519 1942.2521,1973.2461 1907.136,1960.7019 1879.7161,1949.572 1877.4601,1951.724 1861.9559,1945.172 1863.4359,1940.2001 1858.02,1937.4519 1848.74,1933.042 1850.612,1930.164 1832.0,1920.2919 1829.684,1923.292 1822.72,1919.3441 1812.2681,1914.194 1813.736,1910.246 1784.768,1892.736 1776.3319,1891.364 1768.448,1895.9979 1761.48,1898.23 1758.9159,1919.0 1755.98,1937.1959 1755.248,1958.998 1752.316,1984.232 1750.1161,2004.66 1736.7279,1986.292 1738.556,1961.1581 1742.232,1927.928 1732.148,1919.3441 1731.0441,1911.104 1725.3401,1901.692 1723.344,1898.402 1717.66,1898.23 1712.344,1888.446 1711.24,1874.62 1714.728,1871.966 1712.1599,1855.52 1707.212,1844.672 1704.6439,1829.3939 1698.776,1813.2579 1684.64,1787.36 1664.212,1758.734 1647.068,1733.264 1636.64,1718.36 1632.032,1712.32 1627.8159,1705.97 1619.748,1691.2059 1611.864,1679.704 1599.944,1663.054 1588.024,1644.0 1573.1721,1622.714 1574.64,1620.996 1571.02,1611.854 1570.836,1607.562 1543.5121,1566.536 1513.992,1535.122 1493.908,1513.5961 1467.364,1485.926 1456.068,1474.286 1440.608,1458.368 1407.1799,1423.0759 1405.7881,1424.326 1410.396,1429.4121 1406.776,1432.626 1392.556,1436.378 1384.696,1438.18 1378.28,1439.6959 1377.7681,1439.834 1377.2079,1439.984 1376.2001,1440.238 1370.916,1441.664 1364.916,1443.2859 1357.1361,1445.3881 1350.704,1447.0441 1341.1119,1422.7579 1340.908,1422.246 1347.32,1417.768 1356.868,1411.5199 1367.804,1404.572 1380.536,1396.656 1381.036,1396.308 1372.992,1386.922 1365.1321,1379.294 1359.704,1375.252 1353.892,1371.796 1330.968,1358.53 1326.608,1355.9701 1310.692,1346.806 1296.688,1338.4099 1277.724,1327.4359 1197.544,1280.866 1185.292,1299.764 1172.568,1295.896 1172.116,1297.676 1171.868,1298.6439 1171.664,1299.44 1171.428,1300.364 1167.252,1316.742 1150.62,1371.142 1148.916,1371.19 1150.608,1382.102 1152.332,1381.5381 1165.736,1424.258 1167.0,1428.068 1181.128,1472.6339 1182.588,1477.2261 1182.936,1478.312 1183.284,1479.4099 1183.424,1479.838 1184.0,1481.65 1184.064,1481.86 1185.38,1485.9819 1189.184,1498.046 1194.304,1514.27 1200.924,1534.71 1205.988,1550.156 1206.452,1552.402 1206.9039,1554.612 1206.948,1554.838 1207.064,1555.4 1207.084,1555.998 1207.088,1556.1581 1207.16,1558.17 1207.376,1562.548 1207.808,1575.626 1208.0121,1597.02 1208.044,1601.1161 1208.316,1611.4961 1206.856,1611.51 1205.016,1611.528 1204.592,1611.528 1204.276,1611.53 1203.332,1611.538 1202.272,1611.5239 1198.6439,1611.5441 1196.532,1611.898 1187.428,1615.452 1171.088,1622.504 1165.132,1621.24 1157.52,1615.5181 1150.284,1605.082 1142.1641,1593.542 1137.148,1587.3501 1130.22,1582.4459 1121.692,1579.62 1118.14,1579.216 1116.368,1579.984 1115.528,1581.5 1108.112,1582.656 1104.324,1582.512 1096.96,1581.026 1075.612,1583.6941 1071.328,1583.9081 1067.252,1583.418 1064.488,1582.04 1062.448,1580.054 1058.328,1569.364 1056.844,1568.116 1056.2639,1564.44 1056.752,1563.1079 1056.8721,1560.5021 1055.708,1546.2201 1055.224,1543.48 1053.376,1538.666 1050.172,1533.224 1049.136,1531.894 1046.2001,1528.546 1040.952,1523.52 997.112,1511.4459 993.516,1508.692 992.29596,1504.688 992.24,1494.418 996.936,1471.3579 1000.612,1456.984 1001.15204,1454.878 998.068,1448.4761 993.81604,1445.7799 982.74,1441.308 974.892,1437.98 964.164,1433.4861 953.20404,1428.548 951.12396,1426.8721 949.76,1425.09 945.016,1412.91 941.77606,1404.2941 939.99994,1398.472 930.14,1366.6161 921.748,1341.396 919.604,1332.75 918.21606,1327.79 917.296,1322.4541 917.50006,1312.906 919.132,1301.936 922.34406,1289.9519 930.55597,1267.0781 936.38,1251.736 938.91595,1247.328 942.46,1242.874 946.92,1238.944 950.788,1236.404 961.176,1230.876 971.568,1225.13 974.45197,1222.488 976.996,1218.8141 982.692,1210.08 984.04803,1207.7681 986.264,1205.628 985.94,1203.624 1005.96,1188.674 1008.296,1189.416 1015.524,1184.336 1021.084,1180.032 1025.08,1176.692 1025.624,1175.916 1025.36,1175.0181 1021.656,1170.304 1021.388,1170.008 1021.052,1169.62 1018.06,1165.564 1020.656,1163.714 1008.716,1146.476 996.172,1123.866 987.916,1102.0641 983.512,1085.07 977.828,1059.75 989.75195,1057.604 984.61597,1040.782 979.66003,1022.928 969.94,1024.474 962.416,988.76794 958.304,961.302 953.428,930.23206 947.56,882.338 943.52405,846.63196 929.764,846.97595 925.17596,779.856 922.44794,725.54 921.536,678.654 913.648,681.31604 913.748,678.83606 908.068,679.01 907.792,675.902 915.484,675.47406 913.732,663.90796 912.276,656.452 912.824,651.61804 905.648,629.018 903.472,627.224 901.44,627.166 884.744,583.114 879.604,584.834 895.564,629.126 882.25604,633.244 873.824,615.304 871.44,616.334 879.416,633.75195 866.93195,640.44604 857.21204,624.27 841.08,568.292 833.89996,542.572 833.104,541.73 832.472,541.06 832.49194,540.188 832.86395,539.622 832.924,538.81396 833.07996,537.558 833.28406,536.22 833.516,534.866 834.612,533.022 838.83203,530.63 830.088,516.102 825.148,518.28204 824.33203,517.544 823.412,517.308 822.56396,517.10596 821.592,517.10596 820.50397,517.206 819.828,517.17 819.204,516.898 815.48,512.228 816.164,511.57602 802.94,494.638 782.372,468.21402 770.284,452.962 758.964,438.66797 749.012,426.068 756.84,420.59 745.356,405.19598 737.252,410.518 726.64,396.94598 719.66,388.256 706.94794,371.70398 705.904,370.29 700.712,373.598 700.356,375.802 695.956,377.758 688.572,380.81003 687.856,380.644 686.58,381.002 684.36804,381.696 682.388,382.154 680.852,382.404 679.48804,382.718 677.096,383.20798 675.416,383.574 674.11993,383.53 673.216,383.94 671.828,384.08398 670.54803,384.28 669.64,384.488 668.392,384.918 667.276,384.996 666.15204,385.46 664.22797,385.862 662.916,386.26398 661.852,386.292 660.848,386.50598 659.548,386.59402 658.29596,386.942 657.25604,387.13 655.708,387.658 654.172,388.272 650.98395,389.11 648.32,390.97998 644.856,392.838 641.524,394.256 626.148,380.37 626.23206,379.62 625.412,378.83798 624.37604,377.81998 620.89996,374.556 619.68,373.366 619.032,373.242 618.164,372.684 617.42,372.016 616.576,370.678 614.644,368.90802 613.508,367.622 613.11597,366.81802 612.86,364.156 612.876,362.8 612.904,361.86798 613.016,361.152 610.048,357.34198 609.80396,356.99402 609.464,356.58603 606.716,353.046 606.276,352.15198 605.328,351.43597 604.42804,350.99 603.96,350.46802 602.99603,349.75 602.188,349.008 601.24,347.69598 600.13995,345.32 599.61597,343.96 598.916,342.982 598.0,341.79602 597.39197,341.216 596.536,339.70602 595.752,338.286 594.972,337.122 594.196,335.966 593.228,334.13998 592.388,332.426 591.644,330.254 591.072,328.49597 590.368,327.04 589.72003,325.814 589.98,324.198 585.844,323.50998 585.796,322.776 578.056,321.498 577.236,317.64 577.652,313.652 577.708,312.154 578.344,311.448 578.7,311.036 579.124,310.54 581.196,308.3 581.8,308.438 584.284,304.66202 584.432,304.434 568.428,294.896 567.232,295.138 566.388,295.354 562.94403,293.496 564.908,292.724 564.316,291.30002 562.756,292.118 560.676,290.488 556.956,294.932 547.792,277.238 546.588,274.062 545.2,269.896 546.412,268.69998 537.04004,247.82 535.048,243.53801 534.11597,243.124 533.432,243.036 531.964,243.594 529.8,239.828 528.06,236.056 524.66003,233.31801 517.324,229.71399 503.592,213.87599 504.304,207.02998 505.76797,201.072 502.52402,184.458 494.56,169.58 492.38397,155.14801 485.152,142.052 484.476,142.282 480.224,134.532 473.29602,122.724 473.664,121.348 470.02402,114.358 456.37997,105.758 454.348,103.986 454.83203,100.362 457.30798,99.054 455.048,97.796005 451.66,92.562 453.06,91.404 451.984,90.397995 449.776,91.052 444.54,85.843994 438.66797,79.116005 432.88397,75.992004 430.51202,73.904 428.284,71.226 426.08002,70.272 416.92398,70.53 411.74,71.252 407.436,72.416 402.376,70.756 395.85602,67.672 390.88,64.897995 387.91602,62.302002 385.79602,57.811996 383.184,52.892002 381.84,50.149998 381.276,48.022 382.312,47.427998 383.044,47.038002 383.5,46.694 383.848,46.156002 384.072,45.306 383.92398,44.212 383.4,43.262 410.852,8.176 409.356,7.088 381.328,42.066 377.272,37.85 375.004,33.422 374.076,29.82 386.80402,17.75 385.316,16.246 372.636,28.088 368.76398,23.442 368.832,19.612 366.53198,13.802 387.292,-1.082 385.404,-2.976 365.54797,11.792 361.41202,0.37 362.772,-0.208 353.796,-21.034 350.376,-19.948 350.596,-19.184 337.044,-14.96 334.41202,-16.104 318.176,-56.754 307.48,-86.73399 306.184,-93.633995 306.428,-98.996 310.592,-99.698 312.36002,-99.44199 315.472,-125.026 319.236,-155.2 325.43997,-157.242 326.46,-155.924 329.72,-157.132 329.676,-159.096 361.85202,-170.108 363.5,-170.67 360.55597,-175.32 355.1,-179.404 "/>  
<polyline fill="#000000" stroke-width="1" points="-10000,-10000 10000,-10000 10000,0 -10000,0 "/>  
<polyline fill="#000000" stroke-width="1" points="2027.9999999999632,-10000 10000,-10000 10000,10000 2027.9999999999632,10000 "/>  
<polyline fill="#000000" stroke-width="1" points="-10000,2749.999999999986 10000,2749.999999999986 10000,10000 -10000,10000 "/>  
<polyline fill="#000000" stroke-width="1" points="-10000,-10000 0,-10000 0,10000 -10000,10000 "/>  
</svg>