<svg xmlns= "http://www.w3.org/2000/svg" version="1.1" width="1000px" height="1000px">  
<polyline fill="#FFFFFF" stroke-width="1" points="642.768,1830.702 674.41595,1808.2001 641.576,1762.4021 619.464,1757.832 608.02,1718.5199 626.276,1709.6161 661.16,1711.976 702.72,1719.422 717.56,1716.696 723.592,1696.1619 691.528,1655.0701 655.932,1587.392 773.036,1542.126 851.10406,1519.186 866.58405,1536.546 910.80396,1501.894 982.32,1441.616 998.068,1448.4761 1000.612,1456.984 992.29596,1504.688 993.516,1508.692 997.112,1511.4459 1040.952,1523.52 1050.488,1541.696 1042.236,1561.866 1020.68,1578.604 894.41595,1705.1681 780.836,1826.6539 756.984,1852.404 729.396,1856.104 718.89996,1838.922 652.284,1843.7479 642.768,1830.702 "/>  
<polyline fill="#FFFFFF" stroke-width="1" points="1209.396,1557.4459 1257.7599,1542.126 1335.248,1507.364 1348.0841,1447.282 1337.08,1424.5381 1377.428,1395.784 1360.924,1379.9059 1280.228,1331.84 1198.0559,1284.954 1185.4,1301.2839 1173.8,1299.976 1150.804,1376.344 1209.396,1557.4459 "/>  
<polyline fill="#FFFFFF" stroke-width="1" points="593.864,2019.966 615.06,2026.918 623.728,2064.77 627.16797,2068.246 749.18396,2043.354 812.484,2024.472 808.10004,1992.178 805.144,1970.398 848.21204,1952.374 875.13605,1954.1339 954.664,1955.592 1022.81195,1935.68 1114.116,1920.7241 1203.7681,1905.532 1201.772,1613.75 1196.532,1611.898 1187.428,1615.452 1171.088,1622.504 1165.132,1621.24 1142.1641,1593.542 1133.032,1587.6161 1115.528,1581.5 1108.272,1584.1819 1099.1,1581.608 1069.292,1587.186 1059.66,1582.894 1055.224,1543.48 1050.948,1545.558 1044.528,1561.0079 1017.928,1590.19 870.252,1733.956 779.91595,1833.5199 779.04004,1834.654 748.86395,1873.796 611.572,1939.95 580.928,1970.67 589.55597,1993.158 593.864,2019.966 "/>  
<polyline fill="#FFFFFF" stroke-width="1" points="1212.364,1343.856 1231.624,1406.084 1276.992,1409.902 1278.3679,1418.056 1300.8601,1412.95 1291.688,1382.05 1254.092,1356.302 1212.364,1343.856 "/>  
<polyline fill="#FFFFFF" stroke-width="1" points="1032.1439,1184.2119 1107.6,1246.712 1113.396,1244.502 1147.1,1273.1279 1152.528,1274.636 1155.272,1273.9021 1162.688,1250.59 1171.3721,1254.676 1137.62,1371.322 1139.912,1386.772 1166.5079,1474.7479 1177.424,1472.8821 1201.564,1551.7161 1201.504,1557.4241 1201.8159,1602.2059 1181.596,1605.404 1172.304,1615.734 1139.9559,1579.804 1115.608,1570.02 1072.96,1573.882 1068.376,1537.404 1057.1119,1528.876 1051.408,1533.1119 1045.888,1525.888 1054.308,1518.924 1039.94,1510.368 1003.25195,1502.6421 1007.83997,1468.74 1008.756,1445.5659 988.12,1433.9779 981.832,1431.174 980.48004,1430.134 957.456,1420.402 933.16003,1343.818 928.56,1327.5599 928.08405,1315.656 928.796,1308.634 930.44,1301.166 934.68396,1290.682 937.344,1288.322 939.86,1287.8279 946.636,1257.192 949.5,1250.118 954.17596,1246.18 976.53204,1233.776 981.292,1230.432 985.0,1226.28 993.748,1213.208 1032.1439,1184.2119 "/>  
<polyline fill="#FFFFFF" stroke-width="1" points="1209.156,1561.438 1209.904,1585.0321 1210.5281,1604.7821 1260.5121,1595.77 1315.072,1762.7101 1325.572,1793.824 1358.172,1849.8281 1470.96,1950.68 1486.256,1964.33 1520.012,1994.452 1612.156,1969.132 1701.544,1916.346 1715.296,1896.176 1709.3401,1889.31 1709.796,1872.574 1712.088,1866.5659 1704.756,1844.25 1697.42,1818.93 1682.7521,1788.46 1649.288,1741.252 1607.116,1677.308 1572.276,1627.526 1570.44,1616.7981 1567.692,1606.498 1540.1841,1567.446 1462.2479,1483.332 1404.9401,1513.8 1335.708,1514.6599 1209.156,1561.438 "/>  
<polyline fill="#FFFFFF" stroke-width="1" points="1208.688,1607.216 1246.12,1599.5079 1249.324,1598.702 1257.2759,1597.036 1316.0039,1774.9099 1323.3041,1797.02 1356.316,1852.8099 1367.6199,1862.254 1430.876,1914.9999 1456.2639,1989.2821 1427.744,2001.486 1424.1721,2003.0139 1313.216,1948.9419 1229.764,1916.3259 1216.928,1912.034 1212.7681,1880.172 1208.688,1607.216 "/>  
<polyline fill="#FFFFFF" stroke-width="1" points="1418.672,2005.5901 1371.904,2050.222 1342.56,2055.372 1185.744,2033.056 1006.9,2010.74 818.03204,2024.386 811.748,1975.6781 840.87604,1957.5239 941.77606,1961.8159 1084.86,1931.774 1195.8319,1913.75 1216.928,1915.468 1309.548,1949.7999 1418.672,2005.5901 "/>  
<polyline fill="#FFFFFF" stroke-width="1" points="1088.092,1330.124 1072.044,1330.982 1057.368,1319.824 1053.428,1301.022 1058.204,1262.4121 1064.704,1255.022 1107.812,1291.928 1100.932,1299.224 1101.392,1313.386 1088.092,1330.124 "/>  
<polyline fill="#FFFFFF" stroke-width="1" points="553.752,1159.896 612.652,1169.69 633.69995,1168.406 653.608,1166.938 734.452,1154.0559 756.13995,1150.818 803.47595,1140.046 793.66,1083.506 767.05597,1085.652 758.8,1065.5021 761.552,1034.604 764.76404,1018.296 738.16003,961.218 731.73596,932.894 690.452,867.234 670.752,865.174 603.756,875.388 617.516,960.79 648.252,962.076 659.26,1043.1859 616.6,1048.336 554.212,1030.7421 541.824,1049.194 519.344,1050.054 508.30402,1058.55 506.5,1077.926 518.42804,1089.5139 537.696,1093.806 529.896,1147.878 553.752,1159.896 "/>  
<polyline fill="#FFFFFF" stroke-width="1" points="901.552,1505.412 930.33203,1487.622 946.72797,1470.326 974.892,1437.98 964.164,1433.4861 953.20404,1428.548 951.12396,1426.8721 949.76,1425.09 932.628,1382.48 759.376,1371.4419 722.12396,1377.33 697.812,1388.06 684.05206,1389.776 678.032,1414.5281 685.66003,1452.41 713.03204,1451.738 748.32404,1525.456 773.98395,1538.0659 851.10406,1519.186 868.876,1532.254 901.552,1505.412 "/>  
<polyline fill="#FFFFFF" stroke-width="1" points="887.26807,1170.286 905.568,1194.94 897.768,1237.426 886.764,1381.192 761.27203,1374.4039 764.508,1335.78 760.724,1311.2161 716.988,1281.036 727.964,1259.9259 736.916,1247.5901 731.824,1233.77 738.63605,1210.338 759.87195,1188.666 768.50397,1176.684 765.436,1173.672 775.33203,1166.616 753.372,1150.7579 803.33203,1141.776 887.26807,1170.286 "/>  
<polyline fill="#FFFFFF" stroke-width="1" points="1032.1439,1184.2119 1107.6,1246.712 1113.396,1244.502 1147.1,1273.1279 1152.528,1274.636 1155.272,1273.9021 1162.688,1250.59 1171.3721,1254.676 1137.62,1371.322 1139.912,1386.772 1166.5079,1474.7479 1177.424,1472.8821 1201.564,1551.7161 1201.504,1557.4241 1201.8159,1602.2059 1181.596,1605.404 1172.304,1615.734 1139.9559,1579.804 1115.608,1570.02 1072.96,1573.882 1068.376,1537.404 1057.1119,1528.876 1051.408,1533.1119 1045.888,1525.888 1054.308,1518.924 1039.94,1510.368 1003.25195,1502.6421 1007.83997,1468.74 1008.756,1445.5659 988.12,1433.9779 981.832,1431.174 980.48004,1430.134 957.456,1420.402 933.16003,1343.818 928.56,1327.5599 928.08405,1315.656 928.796,1308.634 930.44,1301.166 934.68396,1290.682 937.344,1288.322 939.86,1287.8279 946.636,1257.192 949.5,1250.118 954.17596,1246.18 976.53204,1233.776 981.292,1230.432 985.0,1226.28 993.748,1213.208 1032.1439,1184.2119 "/>  
<polyline fill="#FFFFFF" stroke-width="1" points="762.648,1327.604 760.35596,1362.774 754.968,1372.838 720.51196,1372.7079 711.572,1380.7639 692.13196,1386.476 674.876,1388.4879 614.996,1359.548 603.536,1348.6101 568.45197,1327.548 544.972,1331.176 536.476,1329.8141 531.752,1323.6859 517.988,1313.386 503.54398,1316.738 486.884,1310.748 481.5,1291.6981 491.37997,1243.006 449.944,1190.166 466.148,1183.782 516.15204,1187.644 556.408,1201.22 595.084,1231.952 671.664,1276.48 716.936,1286.204 753.32404,1315.172 762.648,1327.604 "/>  
<polyline fill="#FFFFFF" stroke-width="1" points="775.33203,1166.616 735.448,1191.344 739.39197,1201.036 737.512,1202.4241 733.552,1203.266 713.96,1203.1901 699.336,1223.88 730.27997,1243.33 726.616,1262.128 718.04004,1278.11 672.5,1264.242 610.068,1232.77 529.0,1176.486 530.376,1160.178 617.99603,1177.344 645.2,1173.38 707.872,1163.46 745.05597,1157.1741 775.33203,1166.616 "/>  
<polyline fill="#FFFFFF" stroke-width="1" points="806.51996,1138.72 884.12396,1161.83 887.22,1160.928 917.492,1158.032 992.70404,1124.13 975.736,1058.77 987.20404,1055.486 978.032,1026.304 970.232,1028.45 940.308,848.978 910.52,847.49805 897.884,854.17004 885.5,849.62195 869.404,853.48395 852.824,860.222 836.792,876.53 822.11597,900.992 794.136,908.28595 766.156,897.988 756.524,892.40796 711.112,887.258 716.62,901.42 733.132,930.60205 739.552,955.064 764.77997,1008.708 765.69995,1019.866 761.112,1058.062 767.076,1077.352 782.66797,1078.64 791.98004,1076.644 806.51996,1138.72 "/>  
<polyline fill="#FFFFFF" stroke-width="1" points="763.404,1161.458 750.092,1157.486 743.224,1155.88 707.872,1163.46 665.70404,1173.474 613.86804,1176.478 550.592,1164.594 540.928,1162.316 531.752,1165.32 528.08,1172.6161 542.764,1185.92 654.69196,1253.296 677.628,1264.884 718.456,1276.042 731.75604,1251.152 733.592,1246.86 729.92,1235.272 737.26,1208.236 764.77997,1178.196 761.112,1175.62 771.204,1166.608 763.404,1161.458 "/>  
<polyline fill="#FFFFFF" stroke-width="1" points="284.92,1406.492 174.79199,1427.948 136.248,1443.398 49.056,1524.0801 13.264,1537.812 -10.6,1561.844 0.412,1602.1859 1.3319999,1657.9761 15.096,1725.782 16.015999,1759.256 24.276001,1772.988 67.412,1779.854 80.264,1778.996 175.71199,1712.906 171.12401,1697.458 222.516,1687.1581 259.224,1673.424 273.908,1662.266 288.58798,1665.7 308.80002,1652.774 331.836,1655.736 386.112,1635.822 485.30002,1578.144 489.312,1525.23 495.952,1509.546 542.56396,1505.942 591.604,1457.49 584.964,1437.4121 586.8,1373.038 584.508,1352.8679 531.292,1337.848 508.81198,1326.26 482.664,1342.568 469.81598,1352.8679 455.596,1346.0021 434.94797,1362.31 397.788,1377.76 334.93198,1403.938 284.92,1406.492 "/>  
<polyline fill="#FFFFFF" stroke-width="1" points="894.33203,1331.176 915.82,1331.5719 915.088,1312.2401 917.02,1298.66 933.704,1245.742 970.39606,1220.85 979.568,1204.9719 1021.76,1173.214 1018.99994,1168.582 992.86804,1124.72 941.044,1147.036 916.276,1157.336 890.70795,1161.562 907.104,1191.238 898.848,1231.578 897.076,1286.16 894.33203,1331.176 "/>  
<polyline fill="#FFFFFF" stroke-width="1" points="901.552,1505.412 930.33203,1487.622 946.72797,1470.326 974.892,1437.98 964.164,1433.4861 953.20404,1428.548 951.12396,1426.8721 949.76,1425.09 932.628,1382.48 759.376,1371.4419 722.12396,1377.33 697.812,1388.06 684.05206,1389.776 678.032,1414.5281 685.66003,1452.41 713.03204,1451.738 748.32404,1525.456 773.98395,1538.0659 851.10406,1519.186 868.876,1532.254 901.552,1505.412 "/>  
<polyline fill="#FFFFFF" stroke-width="1" points="642.768,1830.702 674.41595,1808.2001 641.576,1762.4021 619.464,1757.832 608.02,1718.5199 626.276,1709.6161 661.16,1711.976 702.72,1719.422 717.56,1716.696 723.592,1696.1619 691.528,1655.0701 655.932,1587.392 773.036,1542.126 851.10406,1519.186 866.58405,1536.546 910.80396,1501.894 982.32,1441.616 998.068,1448.4761 1000.612,1456.984 992.29596,1504.688 993.516,1508.692 997.112,1511.4459 1040.952,1523.52 1050.488,1541.696 1042.236,1561.866 1020.68,1578.604 894.41595,1705.1681 780.836,1826.6539 756.984,1852.404 729.396,1856.104 718.89996,1838.922 652.284,1843.7479 642.768,1830.702 "/>  
<polyline fill="#FFFFFF" stroke-width="1" points="887.26807,1170.286 905.568,1194.94 897.768,1237.426 886.764,1381.192 761.27203,1374.4039 764.508,1335.78 760.724,1311.2161 716.988,1281.036 727.964,1259.9259 736.916,1247.5901 731.824,1233.77 738.63605,1210.338 759.87195,1188.666 768.50397,1176.684 765.436,1173.672 775.33203,1166.616 753.372,1150.7579 803.33203,1141.776 887.26807,1170.286 "/>  
<polyline fill="#FFFFFF" stroke-width="1" points="593.864,2019.966 615.06,2026.918 623.728,2064.77 627.16797,2068.246 749.18396,2043.354 812.484,2024.472 808.10004,1992.178 805.144,1970.398 848.21204,1952.374 875.13605,1954.1339 954.664,1955.592 1022.81195,1935.68 1114.116,1920.7241 1203.7681,1905.532 1201.772,1613.75 1196.532,1611.898 1187.428,1615.452 1171.088,1622.504 1165.132,1621.24 1142.1641,1593.542 1133.032,1587.6161 1115.528,1581.5 1108.272,1584.1819 1099.1,1581.608 1069.292,1587.186 1059.66,1582.894 1055.224,1543.48 1050.948,1545.558 1044.528,1561.0079 1017.928,1590.19 870.252,1733.956 779.91595,1833.5199 779.04004,1834.654 748.86395,1873.796 611.572,1939.95 580.928,1970.67 589.55597,1993.158 593.864,2019.966 "/>  
<polyline fill="#FFFFFF" stroke-width="1" points="509.272,1568.7319 487.26,1575.1641 488.1,1550.25 490.576,1527.59 533.992,1534.862 611.244,1481.1321 618.216,1461.564 587.85596,1440.094 589.256,1419.558 602.992,1397.63 654.85596,1392.536 679.92004,1432.6901 682.66,1454.49 714.776,1452.2301 714.324,1473.4601 723.04004,1497.494 742.02,1522.19 769.63605,1539.674 659.964,1577.1539 611.528,1588.8961 603.432,1591.364 593.556,1593.108 522.612,1588.174 509.272,1568.7319 "/>  
<polyline fill="#FFFFFF" stroke-width="1" points="1032.1439,1184.2119 1107.6,1246.712 1113.396,1244.502 1147.1,1273.1279 1152.528,1274.636 1155.272,1273.9021 1162.688,1250.59 1171.3721,1254.676 1137.62,1371.322 1139.912,1386.772 1166.5079,1474.7479 1177.424,1472.8821 1201.564,1551.7161 1201.504,1557.4241 1201.8159,1602.2059 1181.596,1605.404 1172.304,1615.734 1139.9559,1579.804 1115.608,1570.02 1072.96,1573.882 1068.376,1537.404 1057.1119,1528.876 1051.408,1533.1119 1045.888,1525.888 1054.308,1518.924 1039.94,1510.368 1003.25195,1502.6421 1007.83997,1468.74 1008.756,1445.5659 988.12,1433.9779 981.832,1431.174 980.48004,1430.134 957.456,1420.402 933.16003,1343.818 928.56,1327.5599 928.08405,1315.656 928.796,1308.634 930.44,1301.166 934.68396,1290.682 937.344,1288.322 939.86,1287.8279 946.636,1257.192 949.5,1250.118 954.17596,1246.18 976.53204,1233.776 981.292,1230.432 985.0,1226.28 993.748,1213.208 1032.1439,1184.2119 "/>  
<polyline fill="#FFFFFF" stroke-width="1" points="331.26,1705.204 320.708,1662.266 254.636,1694.8821 152.308,1739.964 122.023994,1760.564 111.007996,1786.314 58.236,1782.88 14.639999,1774.7261 12.344,1744.256 8.216001,1716.3619 -19.779999,1689.754 -21.616,1670.0121 -34.924,1663.146 -73.476,1663.576 -91.376,1695.762 -126.256004,1738.248 -111.568,1753.268 -123.044,1774.298 -121.208,1813.78 -148.28801,1873.432 -193.268,1918.4921 -182.252,1938.662 -202.904,1974.712 -233.66,2002.178 -277.08,2072.322 -284.332,2135.838 -256.516,2212.2258 -129.196,2180.04 -77.148,2269.99 -0.048,2229.2 79.804,2186.7139 262.436,2122.77 367.184,2077.794 390.148,2051.272 380.03198,2026.0599 318.872,2009.902 263.352,2006.898 240.868,1977.716 233.528,1954.9701 222.976,1911.626 212.88,1870.428 241.788,1843.39 241.788,1806.484 286.752,1798.33 294.096,1775.156 327.13202,1739.5359 331.26,1705.204 "/>  
<polyline fill="#FFFFFF" stroke-width="1" points="762.648,1327.604 760.35596,1362.774 754.968,1372.838 720.51196,1372.7079 711.572,1380.7639 692.13196,1386.476 674.876,1388.4879 614.996,1359.548 603.536,1348.6101 568.45197,1327.548 544.972,1331.176 536.476,1329.8141 531.752,1323.6859 517.988,1313.386 503.54398,1316.738 486.884,1310.748 481.5,1291.6981 491.37997,1243.006 449.944,1190.166 466.148,1183.782 516.15204,1187.644 556.408,1201.22 595.084,1231.952 671.664,1276.48 716.936,1286.204 753.32404,1315.172 762.648,1327.604 "/>  
<polyline fill="#FFFFFF" stroke-width="1" points="284.92,1406.492 174.79199,1427.948 136.248,1443.398 49.056,1524.0801 13.264,1537.812 -10.6,1561.844 0.412,1602.1859 1.3319999,1657.9761 15.096,1725.782 16.015999,1759.256 24.276001,1772.988 67.412,1779.854 80.264,1778.996 175.71199,1712.906 171.12401,1697.458 222.516,1687.1581 259.224,1673.424 273.908,1662.266 288.58798,1665.7 308.80002,1652.774 331.836,1655.736 386.112,1635.822 485.30002,1578.144 489.312,1525.23 495.952,1509.546 542.56396,1505.942 591.604,1457.49 584.964,1437.4121 586.8,1373.038 584.508,1352.8679 531.292,1337.848 508.81198,1326.26 482.664,1342.568 469.81598,1352.8679 455.596,1346.0021 434.94797,1362.31 397.788,1377.76 334.93198,1403.938 284.92,1406.492 "/>  
<polyline fill="#FFFFFF" stroke-width="1" points="116.148,2190.94 136.248,2247.032 58.511997,2296.556 77.036,2355.374 63.331997,2366.854 41.108,2384.648 10.783999,2407.358 0.764,2446.616 -227.784,2615.03 -72.788,2778.28 174.79199,2481.906 413.388,2274.196 450.088,2196.948 457.432,2136.868 376.592,2084.34 116.148,2190.94 "/>  
<polyline fill="#FFFFFF" stroke-width="1" points="1418.672,2005.5901 1371.904,2050.222 1342.56,2055.372 1185.744,2033.056 1006.9,2010.74 818.03204,2024.386 811.748,1975.6781 840.87604,1957.5239 941.77606,1961.8159 1084.86,1931.774 1195.8319,1913.75 1216.928,1915.468 1309.548,1949.7999 1418.672,2005.5901 "/>  
<polyline fill="#FFFFFF" stroke-width="1" points="1088.092,1330.124 1072.044,1330.982 1057.368,1319.824 1053.428,1301.022 1058.204,1262.4121 1064.704,1255.022 1107.812,1291.928 1100.932,1299.224 1101.392,1313.386 1088.092,1330.124 "/>  
<polyline fill="#FFFFFF" stroke-width="1" points="1209.396,1557.4459 1257.7599,1542.126 1335.248,1507.364 1348.0841,1447.282 1337.08,1424.5381 1377.428,1395.784 1360.924,1379.9059 1280.228,1331.84 1198.0559,1284.954 1185.4,1301.2839 1173.8,1299.976 1150.804,1376.344 1209.396,1557.4459 "/>  
<polyline fill="#FFFFFF" stroke-width="1" points="1212.364,1343.856 1231.624,1406.084 1276.992,1409.902 1278.3679,1418.056 1300.8601,1412.95 1291.688,1382.05 1254.092,1356.302 1212.364,1343.856 "/>  
<polyline fill="#FFFFFF" stroke-width="1" points="1032.1439,1184.2119 1107.6,1246.712 1113.396,1244.502 1147.1,1273.1279 1152.528,1274.636 1155.272,1273.9021 1162.688,1250.59 1171.3721,1254.676 1137.62,1371.322 1139.912,1386.772 1166.5079,1474.7479 1177.424,1472.8821 1201.564,1551.7161 1201.504,1557.4241 1201.8159,1602.2059 1181.596,1605.404 1172.304,1615.734 1139.9559,1579.804 1115.608,1570.02 1072.96,1573.882 1068.376,1537.404 1057.1119,1528.876 1051.408,1533.1119 1045.888,1525.888 1054.308,1518.924 1039.94,1510.368 1003.25195,1502.6421 1007.83997,1468.74 1008.756,1445.5659 988.12,1433.9779 981.832,1431.174 980.48004,1430.134 957.456,1420.402 933.16003,1343.818 928.56,1327.5599 928.08405,1315.656 928.796,1308.634 930.44,1301.166 934.68396,1290.682 937.344,1288.322 939.86,1287.8279 946.636,1257.192 949.5,1250.118 954.17596,1246.18 976.53204,1233.776 981.292,1230.432 985.0,1226.28 993.748,1213.208 1032.1439,1184.2119 "/>  
<polyline fill="#FFFFFF" stroke-width="1" points="806.51996,1138.72 884.12396,1161.83 887.22,1160.928 917.492,1158.032 992.70404,1124.13 975.736,1058.77 987.20404,1055.486 978.032,1026.304 970.232,1028.45 940.308,848.978 910.52,847.49805 897.884,854.17004 885.5,849.62195 869.404,853.48395 852.824,860.222 836.792,876.53 822.11597,900.992 794.136,908.28595 766.156,897.988 756.524,892.40796 711.112,887.258 716.62,901.42 733.132,930.60205 739.552,955.064 764.77997,1008.708 765.69995,1019.866 761.112,1058.062 767.076,1077.352 782.66797,1078.64 791.98004,1076.644 806.51996,1138.72 "/>  
<polyline fill="#FFFFFF" stroke-width="1" points="894.33203,1331.176 915.82,1331.5719 915.088,1312.2401 917.02,1298.66 933.704,1245.742 970.39606,1220.85 979.568,1204.9719 1021.76,1173.214 1018.99994,1168.582 992.86804,1124.72 941.044,1147.036 916.276,1157.336 890.70795,1161.562 907.104,1191.238 898.848,1231.578 897.076,1286.16 894.33203,1331.176 "/>  
<polyline fill="#000000" stroke-width="1" points="-10000,-10000 10000,-10000 10000,0 -10000,0 "/>  
<polyline fill="#000000" stroke-width="1" points="2027.9999999999632,-10000 10000,-10000 10000,10000 2027.9999999999632,10000 "/>  
<polyline fill="#000000" stroke-width="1" points="-10000,2749.999999999986 10000,2749.999999999986 10000,10000 -10000,10000 "/>  
<polyline fill="#000000" stroke-width="1" points="-10000,-10000 0,-10000 0,10000 -10000,10000 "/>  
</svg>